<svg width="320" height="250" viewBox="0 0 320 250" fill="none" xmlns="http://www.w3.org/2000/svg">
<g clip-path="url(#clip0)">
<path d="M293.258 221.9C298.793 218.475 303.905 214.39 308.453 209.505C319.97 197.137 321.562 183.11 318.869 166.664C313.334 132.84 296.711 101.943 272.605 77.7741C250.948 56.0618 242.126 22.4848 212.97 8.11098C198.502 0.976498 181.791 0.448989 165.666 0.0613723C138.059 -0.604571 115.363 4.15175 90.8585 17.44C76.3261 25.322 68.1473 36.6416 59.6641 50.4661C52.5516 62.0567 43.107 69.9591 31.833 77.3778C21.0892 84.4423 11.8588 92.0956 6.77964 104.233C1.3116 117.27 0.420164 132.151 0.0472769 146.119C-0.634408 171.62 6.05572 208.507 30.4784 222.249C37.4569 226.174 45.2701 228.352 53.0658 230.182C108.582 243.221 170.431 244.065 227.077 239.592C249.39 237.831 273.84 233.938 293.258 221.9Z" fill="url(#paint0_linear)"/>
<path d="M161.616 249.172C245.302 249.172 313.142 241.946 313.142 233.033C313.142 224.12 245.302 216.895 161.616 216.895C77.9305 216.895 10.0898 224.12 10.0898 233.033C10.0898 241.946 77.9305 249.172 161.616 249.172Z" fill="url(#paint1_linear)"/>
<path d="M29.7523 81.3588C34.7572 82.3934 39.2653 86.0087 39.778 93.8718C40.2645 101.315 36.1992 108.684 38.2093 116.058C40.2733 123.626 46.1637 126.214 44.0124 135.577C43.2476 138.911 42.0139 142.161 42.0751 145.661C42.2062 152.995 47.329 157.474 49.8314 163.229C53.0607 170.661 51.8706 180.884 47.565 186.981C39.3891 198.584 25.521 194.413 15.2069 193.317C9.21445 192.679 3.80759 188.389 2.30876 179.69C0.569592 169.588 5.12434 164.721 7.97198 156.734C10.7395 148.961 7.33108 139.806 7.24368 131.122C7.15192 121.414 12.7598 116.085 13.7896 107.166C14.5339 100.715 11.9354 94.07 14.5179 87.9774C15.1066 86.5554 15.9938 85.2764 17.1193 84.227C18.2449 83.1777 19.5826 82.3824 21.0419 81.895C23.8518 80.9738 26.8508 80.7892 29.7523 81.3588Z" fill="#BDD1F9"/>
<path d="M27.3941 127.838H26.2012V219.449H27.3941V127.838Z" fill="#91B5F8"/>
<path d="M17.9381 146.64L16.8525 147.141L27.0067 169.151L28.0923 168.65L17.9381 146.64Z" fill="#91B5F8"/>
<path d="M36.2025 170.236L26.3076 184.463L27.2868 185.145L37.1817 170.918L36.2025 170.236Z" fill="#91B5F8"/>
<path d="M14.5176 216.076H38.5295V233.444C38.5295 233.869 38.3607 234.277 38.0602 234.578C37.7597 234.878 37.3522 235.047 36.9272 235.047H16.1169C15.692 235.047 15.2844 234.878 14.9839 234.578C14.6835 234.277 14.5146 233.869 14.5146 233.444V216.076H14.5176Z" fill="#91B5F8"/>
<path d="M265.415 216.622H289.426V233.995C289.426 234.42 289.257 234.828 288.956 235.129C288.656 235.429 288.248 235.598 287.823 235.598H267.014C266.589 235.598 266.182 235.429 265.881 235.129C265.581 234.828 265.412 234.42 265.412 233.995V216.622H265.415Z" fill="#91B5F8"/>
<path d="M273.166 214.677C273.179 214.678 273.192 214.678 273.205 214.677C273.231 214.671 273.255 214.659 273.276 214.643C273.298 214.628 273.316 214.608 273.329 214.585C273.343 214.562 273.352 214.537 273.355 214.511C273.359 214.485 273.358 214.458 273.351 214.432C266.083 186.369 259.251 166.49 254.115 158.461C254.002 158.283 253.919 158.155 253.888 158.089C253.865 158.042 253.823 158.006 253.774 157.988C253.724 157.971 253.669 157.974 253.621 157.997C253.573 158.02 253.537 158.06 253.519 158.11C253.501 158.16 253.503 158.215 253.525 158.263C253.568 158.35 253.646 158.472 253.777 158.678C258.89 166.674 265.704 186.511 272.962 214.533C272.975 214.576 273.002 214.615 273.039 214.641C273.076 214.667 273.121 214.68 273.166 214.677Z" fill="#91B5F8"/>
<path d="M250.379 156.883C250.989 157.785 254.166 159.522 254.425 159.347C254.685 159.172 254.256 155.574 253.646 154.672C253.35 154.245 252.898 153.952 252.388 153.856C251.878 153.761 251.35 153.87 250.92 154.161C250.49 154.452 250.192 154.901 250.091 155.411C249.989 155.92 250.093 156.449 250.379 156.883Z" fill="#91B5F8"/>
<path d="M256.534 159.793C256.173 160.846 256.713 164.514 257.013 164.617C257.313 164.721 259.991 162.156 260.352 161.101C260.438 160.85 260.474 160.585 260.457 160.32C260.441 160.056 260.373 159.797 260.256 159.559C260.14 159.321 259.978 159.108 259.779 158.932C259.58 158.757 259.349 158.622 259.098 158.536C258.848 158.45 258.583 158.414 258.318 158.43C258.054 158.447 257.795 158.515 257.557 158.631C257.319 158.748 257.106 158.91 256.93 159.109C256.755 159.308 256.62 159.539 256.534 159.79V159.793Z" fill="#91B5F8"/>
<path d="M252.429 166.012C253.537 166.126 256.986 164.773 257.02 164.457C257.053 164.141 253.952 162.111 252.844 161.996C252.58 161.969 252.314 161.994 252.06 162.069C251.806 162.145 251.569 162.27 251.364 162.437C251.158 162.604 250.987 162.811 250.861 163.044C250.735 163.277 250.656 163.533 250.629 163.796C250.602 164.06 250.627 164.327 250.702 164.581C250.778 164.835 250.903 165.071 251.07 165.277C251.237 165.483 251.443 165.654 251.676 165.78C251.909 165.906 252.165 165.985 252.429 166.012Z" fill="#91B5F8"/>
<path d="M265.347 178.546C264.554 180.24 264.791 186.458 265.275 186.684C265.758 186.91 270.687 183.115 271.481 181.422C271.67 181.019 271.777 180.583 271.798 180.138C271.818 179.694 271.751 179.25 271.599 178.831C271.448 178.413 271.216 178.028 270.916 177.7C270.616 177.371 270.255 177.104 269.852 176.916C269.449 176.727 269.013 176.619 268.569 176.599C268.124 176.578 267.681 176.646 267.262 176.797C266.418 177.103 265.729 177.732 265.347 178.546Z" fill="#91B5F8"/>
<path d="M257.365 188.181C259.195 188.573 265.196 186.941 265.308 186.419C265.42 185.897 260.613 181.947 258.785 181.555C258.351 181.461 257.902 181.455 257.464 181.535C257.027 181.615 256.609 181.781 256.236 182.023C255.862 182.264 255.54 182.577 255.288 182.943C255.035 183.31 254.857 183.722 254.764 184.157C254.671 184.592 254.664 185.042 254.744 185.479C254.824 185.917 254.99 186.334 255.232 186.708C255.473 187.082 255.786 187.404 256.152 187.657C256.518 187.909 256.93 188.087 257.365 188.181Z" fill="#91B5F8"/>
<path d="M269.94 185.67C268.537 187.48 267.146 194.965 267.663 195.366C268.18 195.767 275.083 192.564 276.487 190.755C277.161 189.886 277.462 188.784 277.324 187.692C277.186 186.6 276.621 185.608 275.751 184.934C274.882 184.259 273.781 183.958 272.69 184.096C271.598 184.234 270.607 184.8 269.932 185.67H269.94Z" fill="#91B5F8"/>
<path d="M258.57 198.244C260.847 198.492 267.946 195.749 268.018 195.099C268.089 194.449 261.74 190.247 259.464 189.999C258.372 189.88 257.277 190.201 256.42 190.89C255.564 191.579 255.016 192.58 254.897 193.674C254.779 194.767 255.099 195.862 255.788 196.719C256.477 197.576 257.477 198.124 258.57 198.243V198.244Z" fill="#91B5F8"/>
<path d="M272.598 194.828C271.194 196.637 269.804 204.122 270.32 204.523C270.835 204.924 277.749 201.722 279.145 199.914C279.479 199.483 279.725 198.991 279.869 198.466C280.012 197.94 280.051 197.391 279.983 196.851C279.914 196.31 279.74 195.788 279.471 195.315C279.201 194.842 278.84 194.426 278.41 194.092C277.979 193.758 277.488 193.513 276.962 193.369C276.437 193.225 275.888 193.186 275.348 193.255C274.808 193.323 274.286 193.497 273.813 193.767C273.34 194.037 272.924 194.398 272.591 194.828H272.598Z" fill="#91B5F8"/>
<path d="M261.23 207.407C263.505 207.653 270.606 204.911 270.676 204.261C270.746 203.611 264.399 199.41 262.124 199.161C261.041 199.061 259.962 199.391 259.121 200.08C258.279 200.769 257.741 201.761 257.624 202.843C257.506 203.925 257.819 205.009 258.493 205.863C259.168 206.716 260.151 207.27 261.23 207.405V207.407Z" fill="#91B5F8"/>
<path d="M278.755 206.454C276.768 207.59 272.637 213.983 272.956 214.55C273.275 215.117 280.884 214.788 282.871 213.651C283.825 213.105 284.523 212.202 284.812 211.141C285.101 210.08 284.956 208.948 284.41 207.993C283.864 207.039 282.962 206.341 281.901 206.052C280.841 205.763 279.709 205.908 278.755 206.454Z" fill="#91B5F8"/>
<path d="M263.546 216.456C265.772 216.985 273.16 215.153 273.305 214.517C273.451 213.88 267.684 208.918 265.457 208.396C264.388 208.142 263.261 208.323 262.325 208.9C261.39 209.476 260.721 210.401 260.467 211.471C260.213 212.541 260.394 213.668 260.97 214.604C261.546 215.54 262.471 216.209 263.54 216.464L263.546 216.456Z" fill="#91B5F8"/>
<path d="M259.251 165.63C258.884 166.701 259.432 170.428 259.738 170.533C260.044 170.637 262.762 168.032 263.129 166.961C263.216 166.706 263.252 166.437 263.236 166.168C263.219 165.899 263.149 165.636 263.031 165.394C262.913 165.153 262.748 164.936 262.546 164.758C262.344 164.58 262.109 164.443 261.855 164.356C261.6 164.269 261.331 164.232 261.062 164.249C260.794 164.266 260.531 164.335 260.289 164.454C260.047 164.572 259.831 164.737 259.653 164.939C259.475 165.141 259.338 165.376 259.251 165.63Z" fill="#91B5F8"/>
<path d="M255.219 172.023C256.345 172.139 259.851 170.767 259.88 170.445C259.909 170.123 256.763 168.061 255.637 167.944C255.369 167.917 255.099 167.942 254.841 168.019C254.583 168.096 254.342 168.223 254.133 168.392C253.925 168.562 253.751 168.771 253.623 169.008C253.495 169.245 253.415 169.505 253.387 169.773C253.359 170.041 253.384 170.312 253.461 170.57C253.538 170.828 253.665 171.068 253.835 171.277C254.005 171.486 254.214 171.66 254.451 171.788C254.687 171.916 254.947 171.996 255.215 172.024L255.219 172.023Z" fill="#91B5F8"/>
<path d="M262.398 171.076C261.753 172.55 262.096 177.89 262.516 178.07C262.937 178.251 267.09 174.882 267.734 173.407C267.904 173.054 268.001 172.671 268.02 172.279C268.038 171.888 267.978 171.496 267.841 171.129C267.705 170.761 267.497 170.425 267.228 170.14C266.959 169.855 266.635 169.628 266.276 169.471C265.917 169.314 265.53 169.231 265.138 169.227C264.747 169.223 264.358 169.299 263.996 169.449C263.634 169.598 263.306 169.82 263.032 170.099C262.757 170.379 262.542 170.711 262.398 171.076Z" fill="#91B5F8"/>
<path d="M255.942 180.137C257.544 180.303 262.523 178.352 262.57 177.894C262.616 177.437 258.142 174.508 256.542 174.341C256.156 174.29 255.763 174.317 255.387 174.42C255.011 174.523 254.66 174.7 254.354 174.941C254.048 175.183 253.793 175.483 253.605 175.825C253.417 176.166 253.3 176.542 253.26 176.93C253.219 177.318 253.258 177.71 253.372 178.083C253.485 178.456 253.673 178.802 253.923 179.101C254.173 179.4 254.481 179.646 254.828 179.824C255.175 180.001 255.553 180.108 255.942 180.137Z" fill="#91B5F8"/>
<path d="M279.642 217.304C279.621 217.306 279.599 217.306 279.577 217.304C279.492 217.294 279.415 217.25 279.363 217.183C279.311 217.116 279.287 217.03 279.297 216.946C284.909 170.847 291.551 137.84 298.007 124.008C298.152 123.701 298.253 123.479 298.289 123.37C298.319 123.293 298.377 123.23 298.451 123.194C298.526 123.158 298.611 123.152 298.69 123.178C298.768 123.203 298.834 123.258 298.873 123.331C298.913 123.403 298.923 123.488 298.901 123.568C298.853 123.714 298.755 123.928 298.589 124.281C292.162 138.06 285.537 170.999 279.935 217.029C279.925 217.101 279.891 217.168 279.837 217.218C279.784 217.268 279.715 217.299 279.642 217.304Z" fill="#BDD1F9"/>
<path d="M303.606 120.713C302.828 122.276 298.148 125.704 297.703 125.483C297.257 125.261 297.174 119.457 297.952 117.895C298.131 117.515 298.385 117.175 298.698 116.894C299.011 116.613 299.376 116.397 299.774 116.26C300.171 116.122 300.591 116.065 301.011 116.092C301.43 116.119 301.84 116.23 302.216 116.417C302.593 116.605 302.928 116.865 303.202 117.184C303.476 117.503 303.684 117.873 303.813 118.273C303.943 118.673 303.991 119.095 303.955 119.514C303.92 119.933 303.801 120.341 303.606 120.713Z" fill="#BDD1F9"/>
<path d="M294.45 126.631C295.246 128.234 295.165 134.168 294.709 134.395C294.253 134.623 289.465 131.117 288.665 129.518C288.47 129.137 288.352 128.722 288.319 128.295C288.285 127.869 288.336 127.44 288.469 127.034C288.603 126.627 288.815 126.251 289.095 125.927C289.374 125.604 289.715 125.339 290.098 125.148C290.481 124.957 290.897 124.844 291.324 124.815C291.751 124.786 292.179 124.842 292.584 124.98C292.988 125.118 293.362 125.335 293.682 125.619C294.002 125.902 294.263 126.246 294.45 126.631Z" fill="#BDD1F9"/>
<path d="M302.289 135.641C300.554 136.058 294.789 134.641 294.671 134.146C294.553 133.651 299.041 129.774 300.78 129.353C301.195 129.248 301.626 129.226 302.05 129.289C302.473 129.352 302.88 129.498 303.246 129.719C303.613 129.941 303.931 130.233 304.184 130.578C304.437 130.924 304.618 131.316 304.718 131.732C304.818 132.149 304.834 132.581 304.766 133.004C304.698 133.426 304.546 133.831 304.32 134.195C304.094 134.558 303.798 134.873 303.45 135.122C303.101 135.37 302.706 135.547 302.289 135.641Z" fill="#BDD1F9"/>
<path d="M284.419 158.279C286.037 160.801 286.974 170.725 286.254 171.187C285.535 171.649 276.907 166.669 275.287 164.142C274.533 162.931 274.285 161.471 274.598 160.079C274.911 158.687 275.76 157.474 276.961 156.703C278.161 155.932 279.617 155.665 281.013 155.96C282.409 156.255 283.633 157.088 284.419 158.279Z" fill="#BDD1F9"/>
<path d="M299.13 171.887C296.309 172.897 286.433 171.575 286.145 170.77C285.856 169.964 292.654 162.676 295.467 161.667C296.818 161.199 298.298 161.284 299.587 161.902C300.875 162.52 301.868 163.621 302.35 164.967C302.831 166.313 302.763 167.795 302.158 169.091C301.554 170.387 300.464 171.391 299.123 171.887H299.13Z" fill="#BDD1F9"/>
<path d="M278.633 170.563C281.244 173.138 285.034 184.73 284.3 185.476C283.566 186.222 271.919 182.598 269.313 180.023C268.692 179.411 268.198 178.682 267.859 177.879C267.519 177.075 267.341 176.213 267.335 175.34C267.329 174.468 267.494 173.603 267.822 172.795C268.15 171.987 268.634 171.251 269.246 170.63C269.858 170.009 270.587 169.514 271.39 169.175C272.193 168.835 273.055 168.657 273.927 168.651C274.799 168.645 275.663 168.81 276.471 169.139C277.279 169.467 278.015 169.951 278.635 170.563H278.633Z" fill="#BDD1F9"/>
<path d="M299.345 188.125C295.783 189 283.929 186.148 283.679 185.131C283.428 184.114 292.621 176.096 296.181 175.222C297.892 174.802 299.699 175.079 301.205 175.992C302.711 176.905 303.793 178.38 304.212 180.091C304.632 181.802 304.355 183.61 303.442 185.117C302.529 186.623 301.055 187.706 299.345 188.125Z" fill="#BDD1F9"/>
<path d="M276.349 185.673C278.959 188.248 282.758 199.841 282.015 200.586C281.272 201.33 269.634 197.708 267.028 195.133C265.774 193.896 265.063 192.212 265.05 190.45C265.037 188.689 265.725 186.994 266.961 185.74C268.197 184.485 269.881 183.773 271.642 183.761C273.403 183.748 275.096 184.436 276.35 185.673H276.349Z" fill="#BDD1F9"/>
<path d="M297.059 203.234C293.497 204.108 281.644 201.255 281.395 200.237C281.146 199.22 290.335 191.203 293.897 190.328C294.747 190.109 295.633 190.06 296.503 190.185C297.373 190.31 298.209 190.607 298.964 191.058C299.718 191.509 300.375 192.106 300.897 192.813C301.419 193.52 301.796 194.324 302.005 195.177C302.215 196.031 302.252 196.918 302.116 197.787C301.98 198.655 301.674 199.488 301.213 200.237C300.753 200.986 300.149 201.636 299.436 202.15C298.723 202.663 297.915 203.03 297.059 203.229V203.234Z" fill="#BDD1F9"/>
<path d="M269.033 205.428C272.427 206.814 280.345 216.089 279.958 217.058C279.57 218.027 267.418 219.112 264.024 217.727C263.209 217.402 262.467 216.92 261.839 216.307C261.212 215.694 260.712 214.963 260.368 214.156C260.025 213.349 259.845 212.482 259.838 211.605C259.831 210.727 259.999 209.858 260.33 209.045C260.661 208.233 261.15 207.495 261.768 206.872C262.386 206.25 263.122 205.757 263.932 205.42C264.742 205.084 265.61 204.912 266.487 204.913C267.364 204.914 268.232 205.089 269.041 205.428H269.033Z" fill="#BDD1F9"/>
<path d="M295.295 218.093C291.872 219.404 279.755 218.058 279.381 217.072C279.006 216.087 287.122 206.993 290.545 205.682C291.362 205.357 292.235 205.197 293.114 205.213C293.993 205.228 294.86 205.418 295.665 205.771C296.47 206.124 297.196 206.633 297.803 207.269C298.41 207.906 298.884 208.656 299.198 209.477C299.513 210.298 299.661 211.174 299.635 212.053C299.608 212.931 299.408 213.796 299.045 214.597C298.682 215.398 298.163 216.119 297.52 216.717C296.876 217.316 296.12 217.781 295.295 218.085V218.093Z" fill="#BDD1F9"/>
<path d="M291.369 136.481C292.179 138.104 292.097 144.137 291.633 144.368C291.168 144.6 286.301 141.037 285.493 139.414C285.104 138.634 285.041 137.732 285.317 136.906C285.593 136.08 286.186 135.397 286.965 135.008C287.744 134.619 288.646 134.556 289.472 134.832C290.298 135.108 290.98 135.701 291.369 136.481Z" fill="#BDD1F9"/>
<path d="M299.122 145.779C297.358 146.203 291.501 144.759 291.38 144.259C291.259 143.759 295.826 139.813 297.588 139.39C298.435 139.187 299.328 139.328 300.071 139.783C300.813 140.239 301.345 140.97 301.548 141.817C301.751 142.664 301.61 143.558 301.155 144.301C300.7 145.043 299.969 145.575 299.122 145.779Z" fill="#BDD1F9"/>
<path d="M287.523 145.794C288.859 147.998 289.444 156.549 288.815 156.931C288.186 157.313 280.879 152.836 279.544 150.631C279.226 150.107 279.015 149.526 278.922 148.92C278.829 148.314 278.857 147.696 279.002 147.101C279.148 146.505 279.41 145.945 279.773 145.451C280.135 144.957 280.591 144.539 281.115 144.221C281.639 143.904 282.221 143.692 282.826 143.599C283.432 143.506 284.05 143.534 284.645 143.68C285.24 143.826 285.8 144.088 286.294 144.45C286.788 144.813 287.205 145.269 287.523 145.794Z" fill="#BDD1F9"/>
<path d="M299.688 158.816C297.183 159.417 288.863 157.372 288.691 156.657C288.519 155.941 295.005 150.341 297.511 149.739C298.714 149.45 299.983 149.65 301.039 150.296C302.094 150.942 302.85 151.981 303.14 153.185C303.43 154.389 303.229 155.658 302.584 156.714C301.938 157.77 300.899 158.526 299.696 158.816H299.688Z" fill="#BDD1F9"/>
<path d="M227.607 146.416H223.629V164.994H227.607V146.416Z" fill="#060633"/>
<path d="M240.4 160.931H194.051C192.476 160.931 191.2 162.208 191.2 163.783V173.654C191.2 175.229 192.476 176.505 194.051 176.505H240.4C241.974 176.505 243.25 175.229 243.25 173.654V163.783C243.25 162.208 241.974 160.931 240.4 160.931Z" fill="#F7B40E"/>
<path d="M243.875 109.411H210.994C208.914 109.411 207.228 111.099 207.228 113.18V146.075C207.228 148.156 208.914 149.843 210.994 149.843H243.875C245.956 149.843 247.642 148.156 247.642 146.075V113.18C247.642 111.099 245.956 109.411 243.875 109.411Z" fill="#F7B40E"/>
<path d="M218.147 176.505H214.169V232.733H218.147V176.505Z" fill="#060633"/>
<path d="M235.887 233.927H196.348C196.032 233.927 195.728 233.801 195.505 233.577C195.281 233.353 195.155 233.05 195.155 232.733C195.155 232.417 195.281 232.113 195.505 231.889C195.728 231.665 196.032 231.54 196.348 231.54H235.895C236.211 231.54 236.514 231.665 236.738 231.889C236.962 232.113 237.088 232.417 237.088 232.733C237.088 233.05 236.962 233.353 236.738 233.577C236.514 233.801 236.211 233.927 235.895 233.927H235.887Z" fill="#060633"/>
<path d="M202.287 236.405C202.287 235.829 202.116 235.265 201.796 234.786C201.476 234.307 201.021 233.933 200.489 233.713C199.956 233.492 199.371 233.434 198.806 233.547C198.241 233.659 197.722 233.937 197.314 234.345C196.907 234.752 196.629 235.271 196.517 235.837C196.405 236.402 196.462 236.988 196.683 237.521C196.903 238.053 197.277 238.508 197.756 238.829C198.235 239.149 198.798 239.32 199.374 239.32C200.147 239.32 200.888 239.013 201.434 238.466C201.98 237.92 202.287 237.178 202.287 236.405Z" fill="#060633"/>
<path d="M235.029 236.405C235.029 235.829 234.858 235.265 234.538 234.786C234.218 234.307 233.763 233.933 233.231 233.713C232.699 233.492 232.113 233.434 231.548 233.547C230.983 233.659 230.464 233.937 230.056 234.345C229.649 234.752 229.372 235.271 229.259 235.837C229.147 236.402 229.204 236.988 229.425 237.521C229.645 238.053 230.019 238.508 230.498 238.829C230.977 239.149 231.54 239.32 232.116 239.32C232.889 239.32 233.63 239.013 234.176 238.466C234.722 237.92 235.029 237.178 235.029 236.405Z" fill="#060633"/>
<path d="M219.071 236.405C219.071 235.829 218.9 235.265 218.58 234.786C218.26 234.307 217.805 233.933 217.273 233.713C216.741 233.492 216.155 233.434 215.59 233.547C215.025 233.659 214.506 233.937 214.098 234.345C213.691 234.752 213.413 235.271 213.301 235.837C213.189 236.402 213.246 236.988 213.467 237.521C213.687 238.053 214.061 238.508 214.54 238.829C215.019 239.149 215.582 239.32 216.158 239.32C216.931 239.32 217.672 239.013 218.218 238.466C218.764 237.92 219.071 237.178 219.071 236.405Z" fill="#060633"/>
<path d="M171.564 106.727C171.564 106.727 171.509 101.918 171.103 100.17C170.696 98.421 171.592 96.4509 170.565 96.3343C169.538 96.2177 168.937 99.5941 168.937 99.5941C168.937 99.5941 166.595 96.8254 166.005 95.8651C165.415 94.9048 163.922 93.4578 163.186 93.8352C162.45 94.2126 165.614 98.6323 165.614 98.6323C165.614 98.6323 162.59 95.1773 161.837 95.3813C161.084 95.5853 164.28 100.547 164.28 100.547C164.28 100.547 161.234 96.7044 160.732 96.6126C160.229 96.5208 160.092 97.1576 160.841 98.781C161.372 99.8757 162.019 100.91 162.771 101.867C162.771 101.867 160.429 99.3274 160.041 99.1205C159.654 98.9136 158.969 98.9121 160.333 101.198C161.696 103.485 165.447 107.945 168.226 109.413L171.564 106.727Z" fill="#FB9391"/>
<path d="M174.568 222.83C174.568 222.83 173.811 232.927 173.734 233.068C173.657 233.21 174.462 234.448 174.462 234.448L177.582 235.008L180.43 233.696C180.43 233.696 181.975 223.847 182.272 222.396C182.569 220.944 174.568 222.83 174.568 222.83Z" fill="#FB9391"/>
<path d="M180.424 233.698C180.424 233.698 176.827 234.955 173.753 232.873C173.753 232.873 161.778 237.364 162.144 240.777C162.144 240.777 161.634 241.797 166.822 241.575C172.01 241.354 180.077 241.125 180.29 241.004C180.502 240.883 181.522 241.433 180.424 233.698Z" fill="#0B0755"/>
<path d="M199.443 222.039C199.443 222.039 199.589 231.934 199.509 232.077C199.429 232.22 200.237 233.457 200.237 233.457L203.357 234.015L206.205 232.704C206.205 232.704 205.955 223.503 206.253 222.052C206.552 220.6 199.443 222.039 199.443 222.039Z" fill="#FB9391"/>
<path d="M206.197 232.707C206.197 232.707 202.601 233.965 199.527 231.882C199.527 231.882 187.552 236.372 187.918 239.786C187.918 239.786 187.408 240.806 192.597 240.584C197.785 240.363 205.852 240.134 206.064 240.013C206.277 239.892 207.297 240.439 206.197 232.707Z" fill="#0B0755"/>
<path d="M210.839 64.8077C210.839 64.8077 210.081 63.3986 209.336 63.8766C207.443 65.0933 209.045 67.0285 210.196 67.5298L210.839 64.8077Z" fill="#EA6868"/>
<path d="M210.892 59.8707H210.903C210.903 59.725 210.917 59.591 210.93 59.4496C211.077 57.8349 211.583 56.2733 212.41 54.8792C213.238 53.4851 214.366 52.2936 215.713 51.3918C217.06 50.49 218.591 49.9008 220.195 49.6672C221.799 49.4336 223.435 49.5616 224.983 50.0417C226.531 50.5218 227.952 51.3419 229.142 52.4422C230.333 53.5424 231.262 54.8949 231.863 56.4007C232.464 57.9066 232.721 59.5277 232.615 61.1457C232.509 62.7636 232.043 64.3374 231.251 65.752C230.017 68.1958 228.937 70.2839 227.837 72.0005C226.033 74.8531 225.205 78.2157 225.48 81.5802L225.683 84.225C218.704 87.1642 215.969 83.5897 215.969 83.5897L216.282 78.7969C216.3 78.4963 216.206 78.1997 216.017 77.9649C215.829 77.7302 215.56 77.5743 215.262 77.5277H215.25C207.035 76.2352 210.553 63.5895 210.892 59.8707Z" fill="#FB9391"/>
<path d="M221.534 66.5753C221.55 66.3737 221.627 66.1816 221.753 66.0235C221.879 65.8654 222.05 65.7485 222.243 65.6876C222.436 65.6267 222.642 65.6246 222.837 65.6816C223.031 65.7385 223.203 65.852 223.333 66.0075C223.462 66.163 223.543 66.3535 223.564 66.5548C223.585 66.7561 223.545 66.9591 223.451 67.1379C223.356 67.3167 223.21 67.4634 223.032 67.5591C222.854 67.6548 222.651 67.6954 222.45 67.6756C222.317 67.6637 222.189 67.6257 222.071 67.564C221.953 67.5022 221.849 67.4178 221.764 67.3156C221.678 67.2134 221.614 67.0954 221.575 66.9684C221.535 66.8414 221.521 66.7078 221.534 66.5753Z" fill="#060633"/>
<path d="M212.737 63.9713C212.755 63.7718 212.832 63.5821 212.958 63.4263C213.083 63.2705 213.253 63.1556 213.444 63.096C213.635 63.0364 213.84 63.0349 214.032 63.0916C214.224 63.1483 214.395 63.2608 214.523 63.4147C214.651 63.5686 214.731 63.757 214.752 63.9562C214.773 64.1554 214.734 64.3564 214.641 64.5338C214.548 64.7111 214.405 64.8568 214.229 64.9525C214.053 65.0482 213.852 65.0896 213.653 65.0714C213.521 65.0595 213.392 65.0216 213.274 64.9598C213.156 64.8981 213.052 64.8137 212.967 64.7115C212.882 64.6093 212.817 64.4913 212.778 64.3643C212.738 64.2373 212.724 64.1037 212.737 63.9713Z" fill="#060633"/>
<path d="M225.289 65.3309C225.396 65.3401 225.504 65.3205 225.601 65.2741C225.671 65.2401 225.734 65.1927 225.786 65.1345C225.838 65.0763 225.877 65.0084 225.903 64.9348C225.929 64.8612 225.939 64.7832 225.935 64.7054C225.93 64.6276 225.91 64.5515 225.876 64.4813C225.448 63.5924 224.013 62.1498 221.652 63.0751C221.506 63.1331 221.388 63.247 221.325 63.3917C221.263 63.5364 221.26 63.7 221.318 63.8467C221.376 63.9934 221.49 64.111 221.634 64.1737C221.779 64.2365 221.943 64.2391 222.089 64.1812C224.027 63.4219 224.78 64.9331 224.812 64.9972C224.856 65.0893 224.923 65.1685 225.007 65.227C225.09 65.2855 225.188 65.3213 225.289 65.3309Z" fill="#060633"/>
<path d="M215.979 62.8929C216.083 62.9011 216.188 62.8818 216.282 62.8368C216.376 62.7918 216.457 62.7227 216.516 62.6366C216.575 62.5505 216.61 62.4503 216.619 62.3462C216.627 62.242 216.607 62.1376 216.562 62.0434C216.125 61.153 214.699 59.7119 212.338 60.6372C212.191 60.6952 212.074 60.809 212.011 60.9537C211.948 61.0984 211.946 61.2621 212.004 61.4088C212.061 61.5554 212.175 61.6731 212.32 61.7358C212.465 61.7985 212.628 61.8012 212.775 61.7432C214.714 60.984 215.467 62.4951 215.499 62.5592C215.543 62.6518 215.611 62.7312 215.695 62.7897C215.779 62.8482 215.877 62.8838 215.979 62.8929Z" fill="#060633"/>
<path d="M233.495 62.262L229.888 69.3265L227.955 68.7524L227.635 59.1873L233.495 62.262Z" fill="#060633"/>
<path d="M227.666 68.4886C227.876 68.1553 228.201 67.9106 228.579 67.8008C229.354 67.5662 230.703 67.3636 231.527 68.3472C232.736 69.8045 229.739 73.0847 227.254 71.0898C227.26 71.0927 226.572 70.2679 227.666 68.4886Z" fill="#FB9391"/>
<path d="M216.013 69.7565C216.289 69.9203 216.601 70.0159 216.922 70.0355C217.242 70.055 217.563 69.9978 217.857 69.8687C217.879 69.8593 217.899 69.8455 217.916 69.8281C217.933 69.8106 217.946 69.79 217.954 69.7674C217.962 69.7447 217.966 69.7206 217.965 69.6966C217.963 69.6725 217.957 69.6489 217.946 69.6274C217.936 69.6058 217.921 69.5867 217.902 69.5712C217.884 69.5557 217.862 69.5441 217.839 69.5372C217.816 69.5304 217.792 69.5283 217.768 69.5312C217.744 69.534 217.721 69.5418 217.7 69.5539C217.658 69.5743 216.647 70.0567 215.764 69.0949C215.618 68.9375 215.55 68.8151 215.554 68.7291C215.554 68.6082 215.717 68.4654 215.937 68.2687C216.44 67.8169 217.283 67.0577 217.694 65.2085C217.704 65.1629 217.696 65.1152 217.67 65.0758C217.645 65.0365 217.606 65.0087 217.56 64.9986C217.538 64.9935 217.514 64.9928 217.492 64.9967C217.469 65.0006 217.447 65.0089 217.428 65.0212C217.408 65.0336 217.391 65.0496 217.378 65.0685C217.365 65.0874 217.355 65.1087 217.35 65.1312C216.964 66.8697 216.204 67.5532 215.701 68.0049C215.429 68.2497 215.215 68.4421 215.202 68.7102C215.193 68.9011 215.286 69.0934 215.505 69.331C215.653 69.4965 215.824 69.6398 216.013 69.7565Z" fill="#EA6868"/>
<path d="M213.016 55.8212C213.016 55.8212 211.36 56.7727 210.38 63.3156C210.38 63.3156 210.526 55.9348 211.407 55.2018C212.288 54.4689 213.016 55.8212 213.016 55.8212Z" fill="#060633"/>
<path d="M244.316 141.439L208.811 131.149L195.802 141.101L196.519 153.288H196.471L181.905 165.237C180.249 166.597 178.881 168.273 177.879 170.167C176.878 172.062 176.263 174.136 176.071 176.271L171.522 226.961H183.979L197.295 176.51V226.961H208.454L216.626 180.694L235.125 168.199C238.104 166.187 240.528 163.456 242.174 160.259C243.819 157.061 244.633 153.501 244.54 149.906L244.316 141.439Z" fill="#2F3DBC"/>
<path d="M226.261 82.9149H215.422L211.222 101.096V135.967C211.222 135.967 221.172 140.789 234.274 134.484L230.453 93.6822L226.261 82.9149Z" fill="white"/>
<path d="M226.261 82.9149C226.261 82.9149 242.617 89.8396 245.83 94.2914C248.799 98.4036 248.382 94.4924 256.931 117.569C257.473 119.033 257.648 120.608 257.44 122.155C257.233 123.702 256.649 125.175 255.741 126.445C254.988 127.478 253.944 128.264 252.743 128.702L244.321 131.845L245.212 153.275L228.899 154.878L226.261 82.9149Z" fill="#4851EC"/>
<path d="M215.421 82.9149C215.421 82.9149 199.066 89.8396 195.853 94.2914C192.64 98.7431 196.471 153.275 196.471 153.275L212.785 154.878L215.421 82.9149Z" fill="#4851EC"/>
<path d="M222.748 84.9608L220.842 88.206L224.812 134.112L218.687 144.005L214.141 133.865L218.545 87.9277L217.154 84.6825L220.892 83.2909L222.748 84.9608Z" fill="#FA7267"/>
<path d="M226.261 82.9194L225.448 81.1372L220.352 82.9194L216.135 80.9813L215.421 82.9194L216.32 86.2593L220.167 83.7588L223.92 86.491L226.261 82.9194Z" fill="#B9CAEF"/>
<path d="M229.796 49.2011C229.486 48.8834 228.912 48.6269 228.65 48.9869C228.559 49.1437 228.526 49.3271 228.557 49.5056C228.595 50.0269 228.718 50.5384 228.922 51.0197C227.094 48.8761 224.047 48.2116 221.231 48.251C218.416 48.2903 215.62 48.9082 212.809 48.7697C211.693 48.7144 210.358 48.6357 209.702 49.5406C209.245 50.1716 209.35 51.094 209.807 51.7264C210.265 52.3588 211.009 52.7275 211.765 52.914C211.472 52.7901 211.148 52.7613 210.838 52.8314C210.528 52.9016 210.248 53.0673 210.037 53.3052C209.827 53.5431 209.696 53.8412 209.663 54.1574C209.631 54.4736 209.699 54.792 209.857 55.0678C210.336 55.9042 211.441 56.0878 212.403 56.168C215.46 56.4183 218.529 56.5049 221.595 56.4274L220.258 57.5086C220.096 57.6196 219.964 57.77 219.875 57.9458C219.836 58.0747 219.828 58.2109 219.852 58.3435C219.875 58.4761 219.929 58.6014 220.009 58.7093C220.385 59.2922 221.105 59.5837 221.799 59.623C222.494 59.6624 223.18 59.5108 223.866 59.3986C224.868 59.2355 225.882 59.1653 226.896 59.1888C227.106 59.1813 227.316 59.217 227.512 59.2937C227.768 59.4146 227.939 59.6594 228.12 59.8766C229.199 61.1749 230.909 61.7272 232.523 62.2183C233.025 62.3713 233.688 62.4689 233.968 62.0245C234.061 61.8448 234.106 61.6439 234.097 61.4416C234.174 58.9957 233.588 56.5746 232.403 54.4339C232.706 54.9789 233.454 55.1144 233.79 54.4791C234.218 53.6689 233.207 53.0015 232.625 52.6707C232.103 52.3661 231.605 52.302 231.216 51.7964C230.613 50.9876 230.551 49.9821 229.796 49.2011Z" fill="#060633"/>
<path d="M218.745 72.4027L213.018 71.0184C213.018 71.0184 213.347 74.1935 215.428 74.1935C217.51 74.1935 218.745 72.4027 218.745 72.4027Z" fill="white"/>
<path d="M232.64 85.8439L229.428 99.087L232.64 100.429L227.908 127.886L226.262 82.9193L232.64 85.8439Z" fill="#2F3DBC"/>
<path d="M199.853 90.9122C199.853 90.9122 194.438 93.8908 192.146 100.48C189.855 107.07 186.638 117.352 182.326 118.908C178.888 120.144 172.816 105.407 172.816 105.407L164.805 108.2C164.805 108.2 169.818 138.271 185.424 135.576C195.338 133.863 198.598 112.082 198.598 112.082L199.853 90.9122Z" fill="#4851EC"/>
<path d="M209.043 85.8439L212.255 99.087L209.043 100.429L213.775 127.886L215.421 82.9193L209.043 85.8439Z" fill="#2F3DBC"/>
<path d="M217.798 103.3L194.26 106.203C194.193 106.211 194.133 106.245 194.092 106.298C194.05 106.351 194.032 106.419 194.04 106.485L198.07 139.187C198.079 139.253 198.113 139.314 198.166 139.355C198.219 139.396 198.286 139.415 198.353 139.407L221.891 136.504C221.958 136.495 222.019 136.461 222.06 136.408C222.101 136.355 222.12 136.288 222.111 136.221L218.081 103.52C218.073 103.453 218.038 103.393 217.985 103.351C217.932 103.31 217.865 103.292 217.798 103.3Z" fill="#0B0755"/>
<path d="M211.149 102.517L201.425 103.716L201.68 105.785L211.404 104.585L211.149 102.517Z" fill="#94B5C2"/>
<path d="M207.895 102.918C207.856 102.6 207.723 102.301 207.514 102.058C207.305 101.815 207.028 101.64 206.72 101.555C206.411 101.469 206.084 101.477 205.78 101.578C205.476 101.678 205.208 101.867 205.011 102.119C204.814 102.372 204.696 102.678 204.672 102.997C204.649 103.317 204.72 103.636 204.878 103.915C205.036 104.194 205.273 104.42 205.559 104.564C205.845 104.708 206.167 104.764 206.485 104.725C206.696 104.699 206.901 104.632 207.086 104.527C207.271 104.422 207.434 104.282 207.565 104.114C207.695 103.946 207.792 103.754 207.849 103.549C207.906 103.344 207.921 103.129 207.895 102.918Z" fill="#94B5C2"/>
<path d="M229 126.786C229 126.786 224.391 125.133 222.591 124.906C220.791 124.679 219.22 123.122 218.746 124.061C218.271 124.999 221.276 126.767 221.276 126.767C221.276 126.767 217.809 128.021 216.684 128.244C215.56 128.467 213.652 129.378 213.751 130.213C213.85 131.048 219.175 129.598 219.175 129.598C219.175 129.598 214.805 131.261 214.738 132.051C214.671 132.84 220.528 131.543 220.528 131.543C220.528 131.543 215.787 133.088 215.522 133.534C215.257 133.98 215.813 134.337 217.627 134.198C218.858 134.079 220.073 133.828 221.251 133.449C221.251 133.449 218.001 134.784 217.668 135.082C217.334 135.379 217.085 136.029 219.751 135.539C222.416 135.049 227.991 133.05 230.374 130.92L229 126.786Z" fill="#FB9391"/>
<path d="M220.53 123.389L220.961 126.88L217.606 126.65L217.142 123.762L218.072 122.281L220.53 123.389Z" fill="#0B0755"/>
<path d="M197.302 176.703C197.249 176.703 197.199 176.683 197.162 176.645C197.124 176.608 197.104 176.558 197.104 176.505C197.104 176.438 197.149 169.684 201.153 164.438C203.69 161.116 215.878 153.629 216.395 153.312C216.417 153.299 216.442 153.29 216.468 153.286C216.493 153.282 216.52 153.283 216.545 153.289C216.57 153.295 216.594 153.306 216.615 153.322C216.637 153.337 216.654 153.357 216.668 153.379C216.682 153.401 216.691 153.426 216.695 153.452C216.699 153.477 216.698 153.504 216.691 153.529C216.685 153.555 216.674 153.578 216.659 153.599C216.643 153.621 216.624 153.638 216.602 153.652C216.476 153.729 203.961 161.414 201.469 164.68C197.549 169.817 197.501 176.438 197.501 176.505C197.501 176.531 197.496 176.557 197.486 176.581C197.476 176.606 197.461 176.627 197.443 176.646C197.424 176.664 197.402 176.679 197.378 176.689C197.354 176.699 197.328 176.704 197.302 176.703Z" fill="#0B0755"/>
<path d="M231.381 134.529C231.36 134.529 231.339 134.523 231.322 134.51C231.305 134.497 231.293 134.48 231.287 134.459L228.637 125.862C228.631 125.84 228.632 125.817 228.64 125.796C228.649 125.775 228.664 125.758 228.684 125.747L243.124 117.422L239.098 107.804C239.088 107.78 239.089 107.752 239.099 107.728C239.109 107.703 239.128 107.684 239.152 107.673C239.164 107.668 239.177 107.665 239.19 107.665C239.203 107.665 239.216 107.668 239.228 107.673C239.24 107.678 239.251 107.685 239.26 107.695C239.269 107.704 239.277 107.715 239.282 107.727L243.341 117.426C243.351 117.448 243.352 117.473 243.344 117.496C243.336 117.519 243.32 117.538 243.299 117.55L228.851 125.879L231.453 134.315L244.304 131.752C244.317 131.749 244.33 131.749 244.343 131.752C244.356 131.754 244.368 131.759 244.379 131.766C244.39 131.774 244.399 131.783 244.406 131.794C244.413 131.805 244.418 131.818 244.421 131.831C244.425 131.856 244.42 131.883 244.405 131.905C244.39 131.927 244.368 131.942 244.342 131.947L231.405 134.528L231.381 134.529Z" fill="#17152B"/>
<path d="M273.269 142.022H76.0986V148.325H273.269V142.022Z" fill="#060633"/>
<path d="M230.026 241.212H229.997C229.919 241.208 229.842 241.189 229.771 241.156C229.7 241.122 229.637 241.075 229.584 241.016C229.531 240.958 229.491 240.89 229.464 240.816C229.438 240.743 229.427 240.664 229.43 240.586L234.3 145.139C234.3 145.058 234.317 144.978 234.349 144.904C234.381 144.83 234.428 144.763 234.486 144.707C234.545 144.652 234.614 144.609 234.69 144.581C234.766 144.553 234.847 144.54 234.928 144.544C235.008 144.549 235.087 144.569 235.16 144.605C235.232 144.64 235.297 144.69 235.35 144.752C235.402 144.813 235.442 144.884 235.466 144.961C235.491 145.038 235.499 145.12 235.491 145.2L230.623 240.647C230.615 240.8 230.549 240.944 230.438 241.049C230.326 241.154 230.179 241.213 230.026 241.212Z" fill="#060633"/>
<path d="M276.808 241.212C276.655 241.212 276.507 241.153 276.397 241.048C276.286 240.942 276.22 240.798 276.212 240.646L271.344 145.199C271.33 145.116 271.334 145.031 271.356 144.95C271.377 144.869 271.416 144.793 271.468 144.728C271.521 144.662 271.587 144.609 271.662 144.571C271.737 144.533 271.819 144.511 271.902 144.506C271.986 144.502 272.07 144.515 272.148 144.546C272.227 144.576 272.298 144.622 272.357 144.682C272.416 144.741 272.462 144.813 272.492 144.891C272.521 144.97 272.534 145.054 272.529 145.138L277.397 240.584C277.402 240.663 277.39 240.741 277.364 240.815C277.338 240.889 277.297 240.957 277.245 241.015C277.192 241.073 277.129 241.12 277.058 241.154C276.987 241.188 276.911 241.207 276.832 241.211L276.808 241.212Z" fill="#060633"/>
<path d="M133.143 114.937L170.143 114.885L181.782 141.951L144.782 142.002L133.143 114.937Z" fill="#0B0755"/>
<path d="M174.516 141.958L199.287 141.924L199.285 140.285L174.514 140.32L174.516 141.958Z" fill="#0B0755"/>
<path d="M155.427 128.046C155.428 127.724 155.335 127.408 155.157 127.14C154.98 126.871 154.726 126.661 154.43 126.536C154.133 126.411 153.805 126.377 153.489 126.438C153.173 126.499 152.882 126.653 152.653 126.879C152.424 127.106 152.267 127.395 152.203 127.711C152.138 128.027 152.169 128.354 152.291 128.653C152.412 128.951 152.62 129.207 152.886 129.387C153.153 129.568 153.467 129.665 153.79 129.667C154.003 129.668 154.215 129.627 154.414 129.546C154.612 129.465 154.792 129.346 154.944 129.196C155.096 129.045 155.217 128.866 155.3 128.669C155.383 128.472 155.426 128.26 155.427 128.046Z" fill="white"/>
<path d="M132.736 192.895C132.736 192.895 130.063 227.158 133.707 230.804C137.352 234.45 142.693 237.851 143.175 240.038C143.657 242.225 127.387 239.795 125.929 237.608C124.471 235.42 124.714 231.779 123.258 221.57C121.801 211.36 119.616 192.895 119.616 192.895H132.736Z" fill="#FB9391"/>
<path d="M143.183 240.038C142.851 238.55 140.27 236.499 137.502 234.192C136.892 238.869 127.71 234.072 124.555 232.274C124.872 234.929 125.171 236.468 125.93 237.608C127.391 239.795 143.665 242.225 143.183 240.038Z" fill="#0B0755"/>
<path d="M114.262 192.895C114.262 192.895 111.589 227.158 115.234 230.804C118.878 234.45 124.22 237.851 124.702 240.038C125.184 242.225 108.914 239.795 107.456 237.608C105.997 235.42 106.241 231.779 104.784 221.57C103.327 211.36 101.143 192.895 101.143 192.895H114.262Z" fill="#FB9391"/>
<path d="M124.707 240.038C124.375 238.55 121.794 236.499 119.034 234.192C118.423 238.869 109.241 234.072 106.086 232.274C106.403 234.929 106.702 236.468 107.461 237.608C108.919 239.795 125.194 242.225 124.707 240.038Z" fill="#0B0755"/>
<path d="M64.602 146.416H60.624V164.994H64.602V146.416Z" fill="#060633"/>
<path d="M47.832 176.505H94.1807C95.755 176.505 97.0312 175.229 97.0312 173.654V163.782C97.0312 162.208 95.755 160.931 94.1807 160.931H47.832C46.2576 160.931 44.9814 162.208 44.9814 163.782V173.654C44.9814 175.229 46.2576 176.505 47.832 176.505Z" fill="#F7B40E"/>
<path d="M44.357 149.844H77.2381C79.3185 149.844 81.0049 148.157 81.0049 146.076V113.181C81.0049 111.1 79.3185 109.413 77.2381 109.413H44.357C42.2767 109.413 40.5903 111.1 40.5903 113.181L40.5903 146.076C40.5903 148.157 42.2767 149.844 44.357 149.844Z" fill="#F7B40E"/>
<path d="M74.0619 176.505H70.084V232.733H74.0619V176.505Z" fill="#060633"/>
<path d="M91.89 233.927H52.3433C52.027 233.927 51.7235 233.801 51.4998 233.577C51.2761 233.353 51.1504 233.05 51.1504 232.733C51.1504 232.417 51.2761 232.113 51.4998 231.889C51.7235 231.665 52.027 231.54 52.3433 231.54H91.89C92.2064 231.54 92.5098 231.665 92.7335 231.889C92.9572 232.113 93.0829 232.417 93.0829 232.733C93.0829 233.05 92.9572 233.353 92.7335 233.577C92.5098 233.801 92.2064 233.927 91.89 233.927Z" fill="#060633"/>
<path d="M85.9385 236.405C85.9385 235.829 86.1093 235.265 86.4294 234.786C86.7495 234.307 87.2045 233.933 87.7368 233.713C88.2691 233.492 88.8548 233.434 89.4199 233.547C89.985 233.659 90.5041 233.937 90.9115 234.345C91.3189 234.752 91.5964 235.271 91.7088 235.837C91.8212 236.402 91.7635 236.988 91.543 237.521C91.3225 238.053 90.9491 238.508 90.4701 238.829C89.991 239.149 89.4278 239.32 88.8516 239.32C88.4688 239.321 88.0895 239.246 87.7357 239.1C87.3818 238.954 87.0603 238.739 86.7896 238.468C86.5189 238.197 86.3043 237.876 86.1583 237.522C86.0122 237.168 85.9375 236.788 85.9385 236.405Z" fill="#060633"/>
<path d="M53.2012 236.405C53.2012 235.829 53.372 235.265 53.6921 234.786C54.0122 234.307 54.4672 233.933 54.9995 233.713C55.5318 233.492 56.1176 233.434 56.6827 233.547C57.2478 233.659 57.7669 233.937 58.1743 234.345C58.5817 234.752 58.8591 235.271 58.9715 235.837C59.0839 236.402 59.0263 236.988 58.8058 237.521C58.5853 238.053 58.2119 238.508 57.7328 238.829C57.2537 239.149 56.6905 239.32 56.1143 239.32C55.3417 239.32 54.6007 239.013 54.0544 238.466C53.5081 237.92 53.2012 237.178 53.2012 236.405Z" fill="#060633"/>
<path d="M69.167 236.405C69.167 235.829 69.3378 235.265 69.6579 234.786C69.9781 234.307 70.433 233.933 70.9653 233.713C71.4976 233.492 72.0834 233.434 72.6485 233.547C73.2136 233.659 73.7327 233.937 74.1401 234.345C74.5475 234.752 74.8249 235.271 74.9373 235.837C75.0497 236.402 74.9921 236.988 74.7716 237.521C74.5511 238.053 74.1777 238.508 73.6986 238.829C73.2196 239.149 72.6563 239.32 72.0802 239.32C71.3075 239.32 70.5666 239.013 70.0202 238.466C69.4739 237.92 69.167 237.178 69.167 236.405Z" fill="#060633"/>
<path d="M65.8178 146.416C65.8178 146.416 64.166 163.414 71.0062 167.424C77.8463 171.435 97.7958 176.402 98.846 179.84C99.8962 183.277 100.383 203.809 100.383 203.809C100.383 203.809 117.365 208.681 136.652 201.231C136.652 201.231 136.652 168.718 131.117 163.987C119.503 154.063 102.479 148.325 102.479 148.325L65.8178 146.416Z" fill="#060633"/>
<path d="M131.403 116.815C131.403 116.815 131.459 112.007 131.864 110.258C132.269 108.509 131.376 106.539 132.401 106.423C133.426 106.306 134.03 109.682 134.03 109.682C134.03 109.682 136.372 106.914 136.963 105.953C137.554 104.993 139.046 103.546 139.782 103.924C140.517 104.301 137.356 108.719 137.356 108.719C137.356 108.719 140.382 105.266 141.135 105.468C141.888 105.671 138.685 110.634 138.685 110.634C138.685 110.634 141.732 106.791 142.233 106.7C142.734 106.608 142.874 107.246 142.125 108.868C141.594 109.963 140.946 110.998 140.194 111.954C140.194 111.954 142.537 109.414 142.925 109.209C143.312 109.003 143.995 109 142.634 111.285C141.272 113.57 137.519 118.034 134.735 119.499L131.403 116.815Z" fill="#FB9391"/>
<path d="M84.8471 156.542C84.8471 156.542 89.1281 158.743 90.4987 159.883C91.8694 161.022 94.0426 161.107 93.6887 162.079C93.3347 163.051 90.0472 162.079 90.0472 162.079C90.0472 162.079 91.4761 165.412 92.0704 166.37C92.6647 167.329 93.2925 169.31 92.6254 169.799C91.9582 170.289 89.4208 165.489 89.4208 165.489C89.4208 165.489 91.1571 169.741 90.6386 170.324C90.12 170.907 87.1194 165.83 87.1194 165.83C87.1194 165.83 89.1921 170.274 89.0509 170.764C88.9096 171.253 88.2759 171.093 87.1573 169.699C86.417 168.733 85.7822 167.691 85.2637 166.59C85.2637 166.59 86.4872 169.822 86.4989 170.261C86.5106 170.7 86.2076 171.313 84.7714 169.072C83.3352 166.831 81.025 161.479 80.9551 158.335L84.8471 156.542Z" fill="#FB9391"/>
<path d="M108.334 88.2731C106.561 86.9981 104.563 85.6924 103.916 83.6101C102.924 80.4173 105.572 76.9069 104.516 73.739C103.675 71.2165 100.842 69.9502 99.3931 67.7222C98.0574 65.6719 98.0385 63.0591 97.2577 60.7276C94.7101 53.1574 85.9691 51.7046 79.362 54.3348C78.3726 54.728 77.4266 55.2227 76.5391 55.811C73.6172 57.7447 71.3915 60.8835 71.042 64.372C70.7972 66.8129 71.4469 69.599 69.7747 71.6712C68.2351 73.5772 65.6074 73.7754 63.5114 74.7386C61.2711 75.7689 59.2756 77.8264 58.7177 80.276C58.055 83.1904 59.3004 86.6382 57.4869 89.0192C56.1905 90.7169 53.9328 91.1103 52.1834 92.1508C50.2229 93.3165 48.6075 95.1104 47.8268 97.2699C46.4576 101.059 48.0016 105.771 51.713 107.58C53.5716 108.486 55.7171 108.6 57.784 108.501C61.7537 108.316 65.6614 107.444 69.3334 105.924C72.9268 104.438 76.3687 102.31 80.2403 101.934C83.5978 101.609 86.9144 102.64 90.2413 103.201C93.5186 103.754 96.9271 103.871 99.9888 105.167C101.355 105.749 102.619 106.545 104.003 107.078C105.387 107.612 106.966 107.862 108.339 107.303C109.713 106.743 110.738 105.18 110.307 103.76C110.112 103.115 109.656 102.579 109.417 101.948C108.339 99.1089 111.92 96.4801 111.924 93.4433C111.933 91.259 110.106 89.5482 108.334 88.2731Z" fill="#0B0755"/>
<path d="M82.7914 88.1608C82.7914 88.1608 66.8578 92.7438 62.6118 97.9008C58.3658 103.058 53.2168 128.899 54.6486 135.747C56.0804 142.596 79.8476 162.076 79.8476 162.076L87.5807 155.704L84.4301 149.843C84.4301 149.843 97.6996 152.89 106.1 149.843L105.72 133.863C105.72 133.863 109.347 141.068 117.372 141.068C125.398 141.068 136.655 119.501 136.655 119.501L130.729 114.901C130.729 114.901 122.785 122.624 117.45 124.081C117.18 124.157 116.897 124.178 116.619 124.144C116.341 124.11 116.072 124.021 115.829 123.883C115.585 123.744 115.371 123.559 115.199 123.337C115.027 123.116 114.901 122.862 114.828 122.592C113.342 117.014 108.334 99.2108 104.001 95.0359C98.846 90.0712 82.7914 88.1608 82.7914 88.1608Z" fill="white"/>
<path d="M105.718 133.962C105.693 133.962 105.668 133.952 105.65 133.934C105.631 133.916 105.62 133.892 105.619 133.866L105.238 122.551C105.238 122.533 105.242 122.516 105.251 122.5C105.27 122.464 107.242 118.85 107.242 115.29C107.242 111.73 103.309 107.76 103.263 107.712C103.243 107.693 103.232 107.667 103.232 107.639C103.232 107.612 103.243 107.586 103.263 107.567C103.282 107.547 103.308 107.536 103.335 107.536C103.363 107.536 103.389 107.547 103.408 107.567C103.449 107.607 107.447 111.647 107.447 115.277C107.447 118.735 105.618 122.232 105.443 122.563L105.825 133.857C105.826 133.884 105.816 133.909 105.798 133.929C105.78 133.948 105.755 133.96 105.729 133.961L105.718 133.962Z" fill="#060633"/>
<path d="M84.4324 149.946C84.4164 149.946 84.4007 149.942 84.3866 149.935C84.3724 149.928 84.3602 149.917 84.3508 149.904L72.7841 133.462C72.2625 132.716 72.021 131.809 72.1024 130.902L73.8867 110.793C73.8872 110.779 73.8904 110.766 73.8963 110.755C73.9021 110.743 73.9103 110.732 73.9205 110.724C73.9307 110.715 73.9425 110.709 73.9552 110.705C73.968 110.701 73.9813 110.7 73.9945 110.702C74.0075 110.703 74.0202 110.707 74.0318 110.713C74.0434 110.719 74.0537 110.727 74.0621 110.737C74.0705 110.747 74.0768 110.759 74.0807 110.772C74.0846 110.784 74.086 110.797 74.0848 110.81L72.3005 130.92C72.2251 131.781 72.4562 132.641 72.953 133.349L84.5198 149.786C84.5273 149.797 84.5326 149.809 84.5354 149.822C84.5382 149.834 84.5385 149.847 84.5362 149.86C84.5339 149.873 84.5291 149.886 84.522 149.897C84.5149 149.907 84.5058 149.917 84.495 149.924C84.4777 149.94 84.4553 149.947 84.4324 149.946Z" fill="#060633"/>
<path d="M96.291 70.2912C96.291 70.2912 97.2145 68.9651 97.9063 69.5291C99.6702 70.9673 97.6835 72.7787 96.4775 73.1503L96.291 70.2912Z" fill="#EA6868"/>
<path d="M85.3562 53.6849C79.8474 53.918 75.3058 58.3188 74.895 63.8182C74.7605 65.5547 75.0422 67.2982 75.7165 68.9039C77.1425 72.7625 78.3238 75.8722 79.8285 78.1513C81.3729 80.4434 81.9917 83.2359 81.5603 85.9662L81.1015 88.7247C87.4158 92.0646 90.278 89.4635 90.278 89.4635L90.4353 82.5447C97.3628 81.8773 96.7321 69.102 96.8181 65.3323H96.8064C96.8152 65.1865 96.8239 65.0496 96.8268 64.9068C96.8606 63.4022 96.5851 61.9067 96.0173 60.5131C95.4495 59.1195 94.6016 57.8574 93.5261 56.8052C92.4505 55.753 91.1704 54.9331 89.765 54.3963C88.3596 53.8596 86.859 53.6174 85.3562 53.6849Z" fill="#FB9391"/>
<path d="M84.3089 64.8457C82.9339 66.1834 81.7293 67.6843 80.5291 69.1823C79.2589 70.7663 77.9436 72.4479 77.6159 74.453C75.868 73.0585 74.7712 71.0125 73.8564 68.9695C73.4325 68.0224 73.032 67.0475 72.9082 66.0158C72.7334 64.5586 73.1237 63.1014 73.5112 61.6777C74.0108 59.8474 74.5527 57.9414 75.8417 56.5454C76.6924 55.6215 77.814 54.9906 78.9647 54.4878C81.6506 53.3221 84.6541 52.7712 87.5455 53.2419C90.4368 53.7126 93.1985 55.2558 94.8765 57.6602C97.0366 60.7567 97.1925 64.7786 97.2726 68.5528C96.9288 66.979 95.9238 65.6384 94.942 64.3648C94.3128 63.5342 93.6602 62.6802 92.7863 62.1032C91.2962 61.1196 90.8679 61.3178 88.2577 59.4584C87.5119 61.768 86.0291 63.1684 84.3089 64.8457Z" fill="#0B0755"/>
<path d="M78.9872 72.0588C78.8151 71.7006 78.5176 71.418 78.1511 71.2646C77.3995 70.9411 76.0711 70.5767 75.1301 71.4759C73.7522 72.7874 76.3828 76.4306 79.1038 74.7154C79.1038 74.7154 79.8874 73.9663 78.9872 72.0588Z" fill="#FB9391"/>
<path d="M94.4716 70.3538C94.4941 70.1655 94.4604 69.9747 94.3746 69.8055C94.2887 69.6364 94.1547 69.4965 93.9894 69.4036C93.8241 69.3107 93.635 69.269 93.4459 69.2836C93.2569 69.2983 93.0764 69.3687 92.9274 69.486C92.7784 69.6032 92.6675 69.7621 92.6087 69.9424C92.55 70.1228 92.546 70.3165 92.5973 70.4991C92.6486 70.6817 92.7529 70.8449 92.897 70.9682C93.0411 71.0915 93.2185 71.1693 93.4068 71.1917C93.659 71.2217 93.9129 71.1503 94.1125 70.9932C94.3121 70.8361 94.4413 70.6061 94.4716 70.3538Z" fill="#060633"/>
<path d="M85.4071 71.1626C85.4296 70.9744 85.3958 70.7839 85.3101 70.6149C85.2244 70.4459 85.0906 70.3062 84.9255 70.2133C84.7605 70.1203 84.5716 70.0784 84.3827 70.0928C84.1939 70.1072 84.0135 70.1772 83.8644 70.2941C83.7153 70.4109 83.6042 70.5693 83.545 70.7493C83.4859 70.9293 83.4813 71.1228 83.532 71.3054C83.5827 71.4879 83.6863 71.6514 83.8297 71.7751C83.9732 71.8988 84.15 71.9772 84.338 72.0004C84.4633 72.0161 84.5904 72.0068 84.7121 71.9731C84.8337 71.9394 84.9475 71.882 85.0469 71.8041C85.1463 71.7262 85.2292 71.6295 85.2911 71.5194C85.3529 71.4092 85.3923 71.288 85.4071 71.1626Z" fill="#060633"/>
<path d="M92.9168 76.4289C92.9168 76.4289 91.6059 75.6609 91.1267 75.8125C90.6475 75.964 90.3984 76.5629 90.3984 76.5629C90.3984 76.5629 90.0867 75.98 89.4909 75.9932C88.8952 76.0063 86.9434 77.1896 86.9434 77.1896C86.9434 77.1896 88.8981 79.6668 90.6912 79.2792C92.5163 78.8858 92.9226 76.4289 92.9226 76.4289H92.9168Z" fill="#EA6868"/>
<path d="M82.2044 69.3484C82.123 69.3524 82.0424 69.3313 81.9734 69.288C81.9044 69.2447 81.8504 69.1813 81.8186 69.1063C81.7869 69.0312 81.7789 68.9483 81.7958 68.8686C81.8126 68.7889 81.8536 68.7163 81.9131 68.6606C82.7515 67.9523 83.8077 67.5537 84.9049 67.5314C85.0105 67.5298 85.1125 67.5702 85.1884 67.6436C85.2643 67.7171 85.308 67.8177 85.3099 67.9233C85.3089 68.0279 85.2678 68.1282 85.1953 68.2036C85.1227 68.2789 85.024 68.3236 84.9195 68.3284C84.0202 68.3459 83.1534 68.668 82.4607 69.242C82.3908 69.307 82.2998 69.3447 82.2044 69.3484Z" fill="#0B0755"/>
<path d="M92.093 67.1772C92.0215 67.1374 91.964 67.0765 91.9283 67.0027C91.8927 66.929 91.8807 66.8461 91.8939 66.7653C91.9071 66.6845 91.9449 66.6097 92.0022 66.5512C92.0595 66.4927 92.1334 66.4533 92.2139 66.4384C93.3012 66.2873 94.4071 66.5202 95.3412 67.097C95.3859 67.1245 95.4248 67.1605 95.4555 67.203C95.4862 67.2455 95.5083 67.2937 95.5203 67.3447C95.5324 67.3958 95.5342 67.4487 95.5257 67.5005C95.5172 67.5523 95.4986 67.6019 95.4709 67.6464C95.4144 67.7351 95.3256 67.7983 95.2234 67.8226C95.1211 67.8468 95.0134 67.8301 94.9232 67.7761C94.1561 67.306 93.2523 67.1102 92.3596 67.2209C92.2683 67.2387 92.1738 67.2232 92.093 67.1772Z" fill="#0B0755"/>
<path d="M89.6349 74.912C90.771 74.7663 91.1672 73.9225 91.2138 73.4329C91.2211 73.3471 91.1956 73.2616 91.1424 73.1939C90.1549 71.9319 90.3005 70.1177 90.3034 70.1002C90.3073 70.0563 90.3026 70.012 90.2894 69.9699C90.2762 69.9279 90.2549 69.8888 90.2266 69.855C90.1984 69.8211 90.1637 69.7932 90.1247 69.7728C90.0856 69.7523 90.0429 69.7398 89.999 69.7359C89.9551 69.732 89.9109 69.7367 89.8688 69.7499C89.8268 69.7631 89.7877 69.7844 89.7539 69.8127C89.7201 69.841 89.6922 69.8757 89.6717 69.9147C89.6513 69.9538 89.6388 69.9965 89.6349 70.0405C89.6349 70.1221 89.4688 72.0223 90.5219 73.4854C90.4491 73.7477 90.1636 74.3335 89.0887 74.2562C89 74.2499 88.9125 74.279 88.8453 74.3372C88.7781 74.3954 88.7367 74.4779 88.7304 74.5666C88.724 74.6553 88.7531 74.7429 88.8113 74.8102C88.8695 74.8774 88.9519 74.9187 89.0406 74.9251C89.2386 74.9409 89.4377 74.9365 89.6349 74.912Z" fill="#EA6868"/>
<path d="M86.9375 77.1897C86.9375 77.1897 90.5892 76.9216 92.9095 76.4291C92.9095 76.4291 91.8899 78.3234 90.493 78.3714C89.0962 78.4195 86.9375 77.1897 86.9375 77.1897Z" fill="white"/>
<path d="M119.617 28.3513C107.56 28.3513 97.7852 36.3164 97.7852 46.1409C97.7852 53.7111 103.591 60.1724 111.768 62.7414L111.777 62.7487C111.917 62.8745 112.025 63.0312 112.092 63.2064C112.16 63.3815 112.186 63.5702 112.168 63.7571C111.907 66.0668 110.331 69.0351 109.635 70.2533C109.609 70.3026 109.598 70.3582 109.602 70.4136C109.607 70.469 109.628 70.5219 109.661 70.5661C109.695 70.6102 109.741 70.6437 109.793 70.6627C109.846 70.6816 109.902 70.6852 109.956 70.673C113.344 69.7987 115.614 66.9469 116.802 65.0132C117.022 64.665 117.329 64.3807 117.693 64.1889C118.057 63.997 118.465 63.9044 118.877 63.9203C119.121 63.9276 119.369 63.9305 119.615 63.9305C131.673 63.9305 141.446 55.9669 141.446 46.1409C141.446 36.315 131.676 28.3513 119.617 28.3513Z" fill="white"/>
<path d="M182.326 28.3513C194.382 28.3513 204.157 36.3164 204.157 46.1409C204.157 53.7111 198.351 60.1724 190.174 62.7414L190.165 62.7487C190.026 62.8745 189.918 63.0312 189.85 63.2064C189.782 63.3815 189.757 63.5702 189.775 63.7571C190.036 66.0668 191.612 69.0351 192.308 70.2533C192.334 70.3026 192.345 70.3582 192.34 70.4136C192.336 70.469 192.315 70.5219 192.281 70.5661C192.247 70.6102 192.202 70.6437 192.149 70.6627C192.097 70.6816 192.04 70.6852 191.986 70.673C188.598 69.7987 186.329 66.9469 185.14 65.0132C184.921 64.665 184.613 64.3807 184.249 64.1889C183.885 63.997 183.477 63.9044 183.066 63.9203C182.821 63.9276 182.575 63.9305 182.327 63.9305C170.27 63.9305 160.496 55.9669 160.496 46.1409C160.496 36.315 170.276 28.3513 182.326 28.3513Z" fill="white"/>
</g>
<defs>
<linearGradient id="paint0_linear" x1="160.001" y1="0.000618582" x2="160.001" y2="242.04" gradientUnits="userSpaceOnUse">
<stop stop-color="#D8E2F5"/>
<stop offset="1" stop-color="white" stop-opacity="0"/>
</linearGradient>
<linearGradient id="paint1_linear" x1="161.616" y1="216.895" x2="161.616" y2="249.172" gradientUnits="userSpaceOnUse">
<stop stop-color="#D8E2F5"/>
<stop offset="1" stop-color="white" stop-opacity="0"/>
</linearGradient>
<clipPath id="clip0">
<rect width="320" height="249.172" fill="white"/>
</clipPath>
</defs>
</svg>
