<svg id="design" xmlns="http://www.w3.org/2000/svg" viewBox="0 0 200 180"><defs><style>.cls-1{fill:#0383db;}.cls-2{fill:#70bef2;}.cls-3{fill:#02355e;}.cls-4{fill:#005eb8;}.cls-5{fill:#f4f6f8;}.cls-6{fill:#fbb040;}.cls-7{fill:#fff;}.cls-8{fill:#ed8b00;}</style></defs><path class="cls-1" d="M185.75,60.63V164.08H117.5l-2.83,11H85.33l-2.83-11H14.25V60.63A8.63,8.63,0,0,1,22.87,52H177.12a8.61,8.61,0,0,1,8.63,8.6Z"/><path class="cls-1" d="M84.5,168.25H14.25v-4.17H82.5Z"/><path class="cls-1" d="M185.75,164.08v4.17H115.5l2-4.17Z"/><path class="cls-2" d="M176.88,62.56v92.65H23.13V62.56a1.68,1.68,0,0,1,1.68-1.68H175.2A1.68,1.68,0,0,1,176.88,62.56Z"/><rect class="cls-3" x="78.59" y="164.08" width="42.82" height="13.2"/><path class="cls-4" d="M200,166.88v2.74A10.38,10.38,0,0,1,189.62,180H10.38A10.38,10.38,0,0,1,0,169.62v-2.74a2.79,2.79,0,0,1,2.79-2.8H82.5l2.83,6h29.34l2.83-6h79.71a2.79,2.79,0,0,1,2.79,2.8Z"/><path class="cls-5" d="M43.81,0H156.19a10,10,0,0,1,10,10V155.21a0,0,0,0,1,0,0H33.81a0,0,0,0,1,0,0V10a10,10,0,0,1,10-10Z"/><path class="cls-6" d="M33.81,18.9V5a5,5,0,0,1,5-5H161.19a5,5,0,0,1,5,5V18.9Z"/><ellipse class="cls-7" cx="44.48" cy="9.45" rx="3.8" ry="3.69"/><ellipse class="cls-7" cx="55.5" cy="9.45" rx="3.8" ry="3.69"/><ellipse class="cls-7" cx="66.54" cy="9.45" rx="3.8" ry="3.69"/><rect class="cls-7" x="43.06" y="28.97" width="112.1" height="30.79" rx="4.62"/><rect class="cls-7" x="43.06" y="115.08" width="112.1" height="30.79" rx="4.62"/><rect class="cls-7" x="43.06" y="69.44" width="32.72" height="25.4" rx="4.62"/><rect class="cls-7" x="124.22" y="69.44" width="32.72" height="25.4" rx="4.62"/><rect class="cls-7" x="84.3" y="69.44" width="32.72" height="25.4" rx="4.62"/><rect class="cls-7" x="43.06" y="100.19" width="32.72" height="5.87" rx="2.71"/><rect class="cls-7" x="124.22" y="100.19" width="32.72" height="5.87" rx="2.71"/><rect class="cls-7" x="84.3" y="100.19" width="32.72" height="5.87" rx="2.71"/><path class="cls-6" d="M129.9,109.81,120,99.92l7.19-4a2.34,2.34,0,0,0,.9-1.8c0-.45-.45-1.35-.9-1.35L95.28,80.13c-.45-.45-1.35,0-1.8.45a2.71,2.71,0,0,0-.45,1.8l12.59,31.93c.45.45.9.9,1.35.9a3.41,3.41,0,0,0,1.8-.9l4-7.2,9.89,9.89a2.25,2.25,0,0,0,2.7,0l4.94-4.94a4.89,4.89,0,0,0-.45-2.25Z"/><path class="cls-8" d="M83.14,66.19a3.18,3.18,0,0,0-4.5,4.5l6.75,6.75a3.48,3.48,0,0,0,2.24.89c.9,0,1.35-.45,2.25-.89a3,3,0,0,0,0-4.5Z"/><path class="cls-8" d="M85.39,87.33a3.08,3.08,0,0,0-3.15-3.15H72.8a3.15,3.15,0,1,0,0,6.3h9.44c1.8-.45,3.15-1.8,3.15-3.15Z"/><path class="cls-8" d="M84.49,96.32l-6.75,6.75a3,3,0,0,0,0,4.49,3.44,3.44,0,0,0,2.25.9c.9,0,1.35-.45,2.25-.9L89,100.82a3,3,0,0,0,0-4.5c-1.8-.9-3.59-.9-4.49,0Z"/><path class="cls-8" d="M99.78,72.94a3.07,3.07,0,0,0,3.14-3.15V60.35a3.15,3.15,0,1,0-6.29,0v9.44a3.08,3.08,0,0,0,3.15,3.15Z"/><path class="cls-8" d="M111.47,77c.9,0,1.35-.45,2.24-.9l6.75-6.75a3.18,3.18,0,0,0-4.5-4.5l-6.74,6.75a3,3,0,0,0,0,4.5,3.44,3.44,0,0,0,2.25.9Z"/></svg>