<svg width="120" height="80" xmlns="http://www.w3.org/2000/svg">
 <defs>
  <filter y="117.188" x="379.781" width="99.907" id="filter" height="99.843" filterUnits="userSpaceOnUse"/>
 </defs>
 <g>
  <title>Layer 1</title>
  <text font-weight="bold" x="-29.4268" y="24.3091" fill="#3187c4" font-family="'Sora'" font-size="250" transform="matrix(1.75032 0 0 1.74427 863.989 529.992)" id="Academia" class="cls-1">Suktas</text>
  <g id="svg_1">
   <path id="svg_2" fill-rule="evenodd" fill="#3187c4" d="m384.991,226.293l0,237.116s-139.85,-77.377 -160.256,-218.4c0.474,-49.657 2.682,-136.427 124.875,-164.317s292.684,7.422 434.98,147.678c-8.873,-14 -150.279,-199.529 -418.33,-185.117c-24.472,1.936 -256.447,28.6 -241.425,241.277c5.681,57.065 31.837,141.4 139.444,237.116c65.336,58.115 148.833,108.6 218.53,116.478c-0.545,-50.362 0,-411.833 0,-411.833l-97.818,0l0,0.002z" class="cls-2"/>
   <path id="svg_3" fill="#010a11" fill-rule="evenodd" d="m503.622,380.068s111.657,82.557 135.278,178.877c6.5,16.925 18.139,119.587 -65.629,157.332c-100.077,51.017 -290.8,8.963 -319.124,-6.383c-98.352,-43.885 -155.793,-102.951 -201.047,-153.18c57.776,69.686 140.2,197.043 375.6,221.739c85.546,12.29 242.8,4.327 301.781,-132.149c29.475,-68.209 18.692,-186.85 -79.088,-291.2c-50.061,-53.423 -95.691,-95.97 -147.768,-124.8c-0.02,65.631 -0.003,149.764 -0.003,149.764z" class="cls-3"/>
   <circle id="svg_4" filter="url(#filter)" fill="#207bbb" r="49.953" cy="167.109" cx="429.735" class="cls-4"/>
  </g>
  <ellipse ry="69.99996" rx="69.99996" id="svg_5" cy="150.83386" cx="431.16568" fill="#0a6daa"/>
 </g>
</svg>