<svg xmlns="http://www.w3.org/2000/svg" xmlns:xlink="http://www.w3.org/1999/xlink" x="0px" y="0px" viewBox="0 0 1282 1060.5" style="enable-background:new 0 0 1282 1060.5;" xml:space="preserve"><style type="text/css">	.st0{fill:#E3EEF7;}	.st1{fill:#AEEA0C;}	.st2{fill:#FCECDB;}	.st3{fill:#F4D2B8;}	.st4{fill:#EE51FC;}	.st5{fill:#9C49F3;}	.st6{fill:#E49963;}	.st7{fill:#111D3D;}	.st8{fill:#5858C6;}	.st9{fill:#1F3668;}	.st10{fill:#7D7FF7;}	.st11{fill:#D68D5D;}	.st12{fill:#4A75CB;}	.st13{fill:#20363C;}	.st14{fill:#F4A269;}	.st15{fill:#FFB27D;}	.st16{fill:#C65447;}	.st17{fill:#163560;}	.st18{fill:#1C468A;}	.st19{fill:#802FEA;}</style><g id="&#x421;&#x43B;&#x43E;&#x439;_2"></g><g id="Layer_1">	<g>		<g>			<path class="st0" d="M48,310.2c-3.9,0-5.9-4.6-3.3-7.5c10.5-11.2,31.8-31.2,51.1-31.6c26.9-0.6,34.6,23.7,34.6,23.7    s12-12.2,32.5-9c10.5,1.6,18.2,8,23.2,13.8c3.6,4.1,0.5,10.6-4.9,10.6H48z"></path>			<path class="st0" d="M1182.2,366.1c-2.8,0-4.2-3.3-2.3-5.3c7.5-8,22.7-22.3,36.5-22.6c19.2-0.5,24.7,16.9,24.7,16.9    s8.6-8.7,23.2-6.4c7.5,1.2,13,5.7,16.6,9.9c2.5,3,0.4,7.5-3.5,7.5H1182.2z"></path>			<path class="st0" d="M376.6,86.9c-2.3,0-3.5-2.7-1.9-4.4c6.2-6.6,18.7-18.3,30-18.6c15.8-0.4,20.3,13.9,20.3,13.9    s7.1-7.1,19.1-5.3c6.2,1,10.7,4.7,13.6,8.1c2.1,2.4,0.3,6.2-2.9,6.2H376.6z"></path>		</g>	</g>	<g>		<g>			<path class="st0" d="M470.8,138.5l-29.4,2.6c-4,0.4-7.5-2.8-7.5-6.9V125c0-1.8-0.7-3.5-1.9-4.8l-18.1-18.8    c-2.1-2.1-5.3-2.7-7.9-1.4l-37.5,18c-2.4,1.1-3.9,3.6-3.9,6.2v13.1c0,2.7-1.6,5.2-4.1,6.3l-17,7.4c-0.9,0.4-1.8,0.6-2.7,0.6    h-13.5c-2.3,0-4.4,1.1-5.7,3l-7.5,10.9c-0.8,1.1-1.2,2.5-1.2,3.9v16.4c0,3.8-3.1,6.9-6.9,6.9h-6.7c-3.8,0-6.9,3.1-6.9,6.9v8.3    c0,4.9-5,8.2-9.5,6.4l-8.5-3.5c-2.2-0.9-4.7-0.6-6.6,0.8l-14.5,10.4c-1.8,1.3-2.9,3.4-2.9,5.6V273c0,1.1-0.2,2.1-0.7,3    l-23.8,48.4c-1.2,2.4-3.6,3.8-6.2,3.8h-38.5c-1.4,0-2.8,0.4-3.9,1.2l-45.3,31.7c-1.2,0.8-2.5,1.2-3.9,1.2H85    c-2.3,0-4.5,1.2-5.8,3.1l-49.6,75.8c-1.3,1.9-3.4,3.1-5.8,3.1H9.5c-3.6,0-6.5,2.7-6.9,6.3l-4.1,47.6c-0.2,1.8,0.4,3.5,1.5,4.9    l31.9,39.9c1,1.2,1.5,2.7,1.5,4.3v4.1c0,3.1-2.1,5.8-5.1,6.6l-6.1,1.7c-4.8,1.3-6.7,7.2-3.5,11l20.1,24.2c0.9,1.1,1.5,2.5,1.6,4    l1.7,27.3c0.1,1.7,0.9,3.4,2.1,4.6l36.6,34.8c0.9,0.9,1.6,2.1,1.9,3.3l11.8,47.1c0.3,1.1,0.8,2.2,1.6,3l20.1,21.7    c1.4,1.5,2,3.5,1.8,5.5l-5.2,41c-0.1,1.1-0.6,2.2-1.2,3.1l-14,19.7c-1,1.5-1.5,3.3-1.2,5.1l1.5,9c0.6,3.3,3.4,5.7,6.8,5.7h15.2    c1.6,0,3.1,0.5,4.4,1.6l17.7,14.5c1.2,1,2.8,1.6,4.4,1.6h42.5c1.8,0,3.6-0.7,4.9-2l19.8-19.8c1-1,2.4-1.7,3.9-1.9l48.8-7.1    c1.7-0.2,3.2-1.1,4.3-2.4l16.2-19.5c1-1.2,2.5-2.1,4.1-2.4L350,782c1.8-0.3,3.4-1.4,4.4-2.9l20.4-29.7c0.9-1.3,2.3-2.3,3.9-2.7    l52.5-14.2c1.7-0.5,3.2-1.6,4.1-3.2l6.3-10.7c1.3-2.2,3.6-3.5,6.1-3.4l33.8,0.8c0.8,0,1.5-0.1,2.3-0.3l84.5-27.3c3-1,6.3,0.3,8,3    l9.1,15c1.1,1.8,3,3,5.1,3.3l41,4.9c2.7,0.3,5,2.3,5.8,4.9l7.5,25.5c0.6,2.1,2.2,3.8,4.3,4.5l16.6,6c2.7,1,4.6,3.6,4.6,6.5v40.7    c0,3.5,2.7,6.5,6.1,6.8l14.9,1.6c3.6,0.4,6.8-2.1,7.5-5.6l3.3-17.7c0.3-1.5,1.1-2.9,2.2-3.9l27.7-24.2c5.6-4.9,13.9,1.3,10.8,8.1    l-18,39.3c-1.1,2.4-0.7,5.1,0.9,7.2l0,0c2.7,3.4,7.8,3.5,10.6,0.2l7.9-9.1c4.2-4.8,12.1-1.9,12.1,4.5v18.4c0,3.5,2.6,6.4,6.1,6.8    l23.7,2.8c2.1,0.3,4.1,1.5,5.1,3.4l10.7,18.3c0.8,1.4,1.1,3,0.8,4.6l-3.7,22.2c-0.5,2.8,0.8,5.6,3.3,7.1l95.5,55.9    c2.4,1.4,5.4,1.2,7.6-0.4l31.1-23.3c2.5-1.9,6-1.8,8.5,0.2l33.7,27.4c2.4,2,5.9,2.1,8.4,0.2l45.8-33.5c0.5-0.3,1-0.6,1.5-0.8    l24-9.4c1.6-0.6,2.9-1.9,3.7-3.4l23-47.9c0.2-0.3,0.3-0.6,0.5-0.9l45.2-65.3c0.3-0.4,0.6-0.8,1-1.1l48.8-45c1-0.9,1.6-2,2-3.3    l14.9-55c0.1-0.5,0.2-1,0.2-1.5l7.7-156.9c0.1-1.3-0.3-2.7-0.9-3.8l-47.9-81.2c-0.6-1-0.9-2.1-1-3.3l-0.7-24.4    c-0.1-3.9-3.4-6.9-7.3-6.7l-20.7,1.1c-4,0.2-7.3-3-7.3-7l0.8-36.6c0-1.8-0.6-3.6-1.9-4.9l-81.9-86.6c-0.8-0.8-1.3-1.8-1.6-2.8    l-40.2-141.2c-0.8-2.8-3.2-4.8-6.1-5l-28.2-2.1c-3.5-0.3-6.2-3.1-6.4-6.5l-3.4-69.8c-0.1-2.6-1.7-4.8-4-5.9l-16-7.3    c-2.3-1-3.8-3.2-4-5.7l-1.9-23.1c-0.4-4.2-4.4-7.1-8.5-6.1l-7.5,1.9c-2.6,0.6-4.5,2.7-5.1,5.3l-10.4,49.6    c-0.3,1.2-0.9,2.4-1.7,3.3l-11.4,12.2c-1.2,1.3-1.9,3-1.9,4.8l0.9,99.1c0,1.1-0.2,2.2-0.7,3.1L858,220.5c-1.7,3.5-6,4.8-9.4,3    l-156.4-82.7c-3.8-2-4.8-7-2.2-10.3l14.6-18.6c1.2-1.5,1.7-3.4,1.4-5.2L703.3,88c-0.5-3.3,1.5-6.5,4.8-7.5l19.7-6.1    c1.9-0.6,3.5-2,4.3-3.9l3.7-8.8c1.6-3.7-0.4-7.9-4.2-9.2l-32.1-10.7c-1.2-0.4-2.5-0.5-3.8-0.2l-26.5,6.4    c-2.4,0.6-4.9-0.2-6.6-1.9l-16.5-17.3c-0.8-0.9-1.8-1.5-3-1.8L580.2,8c-4.6-1.4-9.2,2.3-8.9,7.1l1.7,21.5    c0.3,3.2-1.8,6.2-4.9,7.1l-52.1,15.7c-2.5,0.8-4.4,2.9-4.8,5.5l-4.7,28.4c-0.3,1.6-1.1,3.1-2.4,4.1l-25.5,21.4    c-1.8,1.5-2.7,3.8-2.4,6.1l0.7,5.9C477.4,134.7,474.6,138.2,470.8,138.5z"></path>			<path class="st0" d="M966.4,975.8v19c0,1.2,0.4,2.4,1.2,3.3l9.7,11.6c0.6,0.7,1,1.6,1.2,2.5l3.4,22.2c0.1,0.6,0.3,1.2,0.6,1.7    l12.2,21.8c0.9,1.6,2.6,2.6,4.5,2.6h22.3c1.4,0,2.7-0.6,3.7-1.6l16.4-17c0.9-1,1.4-2.2,1.4-3.6v-8c0-1.2,0.4-2.3,1.2-3.3    l9.7-11.8c0.7-0.8,1.1-1.8,1.2-2.9l2.3-30.5c0.3-3.7-3.2-6.4-6.7-5.3l-36.4,11.8c-1.2,0.4-2.6,0.3-3.8-0.2l-36.5-17.2    C970.3,969.5,966.4,972,966.4,975.8z"></path>		</g>	</g>	<g>		<g>			<path class="st1" d="M1071,799.7c0,14.6-5.9,27.8-15.5,37.4c-9.6,9.6-22.8,15.5-37.4,15.5H587.5V750.1h433.9c2.7,0,5.4,0.2,8,0.6    C1053,754.5,1071,775,1071,799.7z"></path>			<path class="st2" d="M667.4,800.8c0,14.2-5.7,27.1-15,36.5c-0.1,0.1-0.1,0.1-0.2,0.2c-9.4,9.4-22.3,15.2-36.6,15.2H126.2V750.1    h490.5c14.2,0,27.1,5.9,36.3,15.3C661.9,774.5,667.4,787,667.4,800.8z"></path>			<path class="st1" d="M708.1,844.9c0,2.1-0.9,4-2.2,5.4c-1.4,1.4-3.3,2.3-5.4,2.3H108.8c-4.2,0-7.7-3.4-7.7-7.7    c0-2.1,0.9-4,2.3-5.4c1.4-1.4,3.3-2.2,5.4-2.2h591.6C704.7,837.3,708.1,840.7,708.1,844.9z"></path>			<path class="st1" d="M708.1,757.7c0,2.1-0.9,4-2.2,5.4c-1.4,1.4-3.3,2.3-5.4,2.3H108.8c-4.2,0-7.7-3.4-7.7-7.7    c0-2.1,0.9-4,2.3-5.4c1.4-1.4,3.3-2.2,5.4-2.2h591.6C704.7,750.1,708.1,753.5,708.1,757.7z"></path>			<polygon class="st3" points="126.2,801.3 191.9,803.1 126.2,804.1    "></polygon>			<polygon class="st3" points="126.2,817.4 282.3,819.2 126.2,820.2    "></polygon>			<path class="st1" d="M1029.4,750.7L887.8,852.6H587.5V750.1h433.9C1024.1,750.1,1026.8,750.3,1029.4,750.7z"></path>		</g>		<g>			<g>				<g>					<path class="st4" d="M338.9,751h364.5V595H334.8c-34.6,0-62.7,28.1-62.7,62.7v26.5C272.1,721.1,302,751,338.9,751z"></path>					<path class="st2" d="M694.4,751h420.3V595H693c-33.7,0-60.9,27.3-60.9,60.9v32.7C632.1,723.1,660,751,694.4,751z"></path>					<path class="st4" d="M605.5,751h521.9c5.3,0,9.7-4.3,9.7-9.7v-4c0-5.3-4.3-9.7-9.7-9.7H605.5c-5.3,0-9.7,4.3-9.7,9.7v4      C595.8,746.7,600.1,751,605.5,751z"></path>					<path class="st4" d="M605.5,618.3h521.9c5.3,0,9.7-4.3,9.7-9.7v-4c0-5.3-4.3-9.7-9.7-9.7H605.5c-5.3,0-9.7,4.3-9.7,9.7v4      C595.8,614,600.1,618.3,605.5,618.3z"></path>				</g>				<polygon class="st3" points="1114.7,673 1056.2,675.6 1114.7,677.2     "></polygon>				<polygon class="st3" points="1114.7,637.1 975.5,639.7 1114.7,641.3     "></polygon>			</g>			<g>				<path class="st5" d="M976.9,639.2c0,0,9.2,4.9,12.2,13.1c0.5,1.4,0.9,2.9,1,4.5c0.5,10.8,0,35.2,0,35.2l27.1-12.2l27.1,12.2     v-33.1c0-6.3-2.3-12.4-6.6-16.3c-2.1-1.9-4.6-3.4-7.5-3.4H976.9z"></path>				<path class="st5" d="M976.9,639.2c0,0,9.2,4.9,12.2,13.1l54.4,0.5c0,0-2.1-11.6-13.4-13.6H976.9z"></path>			</g>		</g>		<g>			<path class="st6" d="M376.2,420.7c0,0-19.4,11-24.8,11c-5.4,0-26.7-4.1-32.6-1.1s-16.7,15.2-18.7,19.2c-3.6,7.2,14.6,4,23.2-2.1    c1.2-0.9,2.8-1.2,4.3-0.9c4.5,1,13.7,2.7,18.2,1c6-2.2,37.7-4.7,37.7-4.7L376.2,420.7z"></path>			<path class="st7" d="M354.3,818.6c0,0-2.1,33.6-8.6,34.1c-0.9,0.1-33,0.1-33,0.1l-41-0.2c0,0,0.3-9.9,12.3-12    c12-2.1,32.1-10.5,39.3-26.4C330.9,797.5,354.3,818.6,354.3,818.6z"></path>			<path class="st8" d="M523.6,270.7c0,0-20.1,142.7-53.3,155.5c-16.4,6.3-88.9,20.6-110.4,22c0,0-5.3-4.3-4-21.6    c0,0,76-27.9,86.8-43.1c16.1-22.6-10-92.2,10.2-113.4C473,248.9,507,239.8,523.6,270.7z"></path>			<path class="st7" d="M516.8,571.4c-5.9,9.9-12.6,19.2-19.6,28.1c-21.6,27.2-45.1,49.7-49.2,71c-0.8,4.2-2.1,8.8-3.8,13.6    c-1.7,4.9-3.8,10-6.3,15.3c-9.2,19.9-22.9,42.2-36.5,62.5c-23.6,35-45.9,64.3-45.9,64.3l-40.8-1.7c1.6-4.1,19.4-52.5,43.2-111.6    c9.7-24,19.9-49.5,29.8-74.1c1.3-3.3,2.6-6.6,3.9-9.8c3-7.5,6-14.9,8.9-22.2c22.3-55.5,40.1-99.7,40.1-99.7s89.3-33.8,98.5-11.9    C547,513,540.8,530.7,516.8,571.4z"></path>			<path class="st7" d="M448.7,722.5c0,0,28.4,18.2,25.6,24.1c-0.4,0.8-16,28.9-16,28.9l-20.2,35.7c0,0-8.5-5.1-4.5-16.5    c4-11.5,6.4-33.1-3.9-47.2C418.9,732.6,448.7,722.5,448.7,722.5z"></path>			<path class="st9" d="M434.8,754.5c0,0,17.7-15.6,20.8-27.1c0,0-73-87.5-88.9-107.1c-0.7-0.9-0.5-1.9,0.4-3    c12-13.5,144.8-40.9,162.2-67.9c6-9.3,9.4-18.1,11.2-25.9c3.9-16.5,0.8-27.9,0.8-27.9l-132.7-3.8c0,0-110.5,68.8-123,115.7    C273.3,654.4,434.8,754.5,434.8,754.5z"></path>			<path class="st9" d="M367.2,617.3c12-13.5,144.8-40.9,162.2-67.9c6-9.3,9.4-18.1,11.2-25.9v-16.8l-56.4-8.9    c0,0-16,49.2-63.4,67.7C376.5,582.8,368.1,613.5,367.2,617.3z"></path>			<path class="st6" d="M445.1,261.7c26.8,6.9,71.3-17.9,71.3-17.9s-17.3-11.6-23.7-37.1c-0.3-1.3-0.6-2.6-0.9-4    c-2.8-0.6-8.1-1.7-13.8-2.9l-20.5,18.4c0,0,0.5,7.6,3,20.7c0.4,2.3,1,4.7,1.5,7.4C451.2,253,445.1,261.7,445.1,261.7z"></path>			<path class="st10" d="M544.9,372.9c-3.8,51.7,1.2,130.4-3.1,144c-3.8,11.8-46.7,4.8-63.8,0.8c-6.3-1.5-14-3.5-21.9-6    c-22.1-6.8-46.2-16.6-48.8-23.9c-0.1-0.3-0.2-0.6-0.2-0.8c-0.2-1.1-0.2-2,0-3c0.9-3.7,4.2-7.7,4.6-16.9    c0.4-10.2,0.4-22.3,0.8-35.2c0-1.5,0-3,0.2-4.5l0-0.5c0-0.3,0-0.6,0-0.8c0.4-14.4,1.1-29.6,2-44.7c0.6-9.5,1.2-18.8,1.9-27.8    c1.9-23.2,4.5-43.8,8-56.8c5.6-21.2,18-35.1,29.3-45.2l8.2-7c9.1,2,19.9,0.7,29.6-3.9c10.5-5,14.2-8.6,16-7.2    C531.9,252.2,549.4,309.7,544.9,372.9z"></path>			<path class="st8" d="M456,511.8c-22.1-6.8-46.2-16.6-48.8-23.9c-0.1-0.3-0.2-0.6-0.2-0.8c0-1,0-2,0-3c0.9-3.7,4.2-7.7,4.6-16.9    c0.4-10.2,0.4-22.3,0.8-35.2c0-1.5,0-3,0.2-4.5l0-0.5c0-0.3,0-0.6,0-0.8L502,312.2C502,312.2,562.1,437.3,456,511.8z"></path>			<path class="st11" d="M457.6,218.1c0,0,0.5,7.6,3,20.7c20-6.5,29.1-24.6,32.1-32.2c-0.3-1.3-0.6-2.6-0.9-4    c-2.8-0.6-8.1-1.7-13.8-2.9L457.6,218.1z"></path>			<path class="st6" d="M454.9,229.7c0,0,43.7-7.3,38.7-34.4c-5-27.1-2.7-46.3-30.7-42.8c-28.1,3.5-31.6,14.8-32.1,24.3    C430.2,186.2,443.4,230.9,454.9,229.7z"></path>			<g>									<rect x="262.7" y="358.9" transform="matrix(0.9511 -0.309 0.309 0.9511 -114.3438 101.9663)" class="st12" width="4" height="106"></rect>									<rect x="279.1" y="455.1" transform="matrix(0.9998 -2.135566e-02 2.135566e-02 0.9998 -9.7144 7.2525)" class="st12" width="111.3" height="6.7"></rect>			</g>			<path class="st6" d="M388.2,465.9c0,0-35.7,9.4-49.1,8.4c-13.4-1-24.5-7.4-26.2-10.7c-1.7-3.3-5.2-9.2,3.9-8.1    c9.1,1.1,21.6,3,22,1.3c0.4-1.8-7.4-1.6-7.4-1.6s-2.4-3.4,0.6-3.6c3-0.1,11.7-2.5,14.9-0.9c3.2,1.6,6.2,7.6,8.6,7.3    c2.4-0.2,29.9-12.4,29.9-12.4L388.2,465.9z"></path>			<path class="st10" d="M514.7,276.5c0,0-4.2,144.1-35.9,160.5c-15.6,8.1-86.1,30.3-107.3,34.1c0,0-5.7-3.7-6.3-21    c0,0,72.4-36.1,81.5-52.4c13.5-24.2-20.1-90.6-2.4-113.9C462.1,260.5,494.8,247.7,514.7,276.5z"></path>			<path class="st13" d="M492.8,206.6c0,0,0.5-9.3-5.2-14.6c0,0,2-9.3-1.7-10.9s-4.5,6.3-6.2,5.1c-1.7-1.2-9.2-7.1-12.5-15.7    c-3.2-8.6-32.8,1.8-36.2,3.4c-3.4,1.6-14.5-4.1-16.7-8.8c0,0,6.2-4.9,8.9-8.6c2.8-3.7,22.1-28.6,49.2-21.5    c27.1,7.1,30.8,20,29.2,31.1C500.1,177.1,503.8,202.9,492.8,206.6z"></path>		</g>		<g>			<g>				<path class="st14" d="M786.2,326.2c0,0,13.9,20.5,21.8,63.6c6.9,37.8,13,51.7,23,59.4c10,7.7,65.7,30.6,65.7,30.6l-4.2,9.8     c0,0-81.7-11.1-90.8-24.8c-9.2-13.6-44.1-94.3-41.4-112.8C763,333.4,786.2,326.2,786.2,326.2z"></path>				<g>					<path class="st15" d="M986.2,776.6c-0.7,8,10.4,9.9,23.2,10.5c12.8,0.6,9,3.3,26.6,6.5c17.6,3.2,24.6-1.6,25.9-4      c1.1-2.1-7-5.4-15.8-9.1c-1.1-0.5-2.2-0.9-3.3-1.4c-9.8-4.3-15.3-13.1-23-21.3c-7.2-7.7-14.1-32.5-14.1-32.5l-23.9-5.1      c0,0,6.7,22.3,9,31.8c1.4,5.6-0.7,11.8-2.4,16.6C987.4,771.2,986.4,773.8,986.2,776.6z"></path>					<path class="st16" d="M1009.4,787.2c12.8,0.6,9,3.3,26.6,6.5c17.6,3.2,24.6-1.6,25.9-4c1.1-2.1-7-5.4-15.8-9.1l-0.1,0.1      c0,0-12.4,4.2-26.7,0.3c-11.6-3.2-22.9-10.1-30.9-12.4c-1,2.6-1.9,5.2-2.2,8C985.5,784.6,996.5,786.5,1009.4,787.2z"></path>				</g>				<path class="st17" d="M748.1,493.1c0,0,158.9-12,188.8,6.9c29.9,18.9,77.9,238.8,77.9,238.8s-3,2.4-9.6,3.1     c-6.2,0.7-19.7-3-19.7-3s-69-98.4-73.8-123.2c-4.9-24.8-3.7-46.9-14.7-47.5c-11.1-0.6-148.9,16.8-169.8-20     c-20.9-36.7-3.6-73.1-3.6-73.1L748.1,493.1z"></path>				<g>					<path class="st15" d="M925.4,802.1c-0.7,8,10.4,9.9,23.2,10.5c12.8,0.6,9,3.3,26.6,6.5c17.6,3.2,24.6-1.6,25.9-4      c1.1-2.1-7-5.4-15.8-9.1c-1.1-0.5-2.2-0.9-3.3-1.4c-9.8-4.3-15.3-13.1-23-21.3c-7.2-7.7-14.1-32.5-14.1-32.5l-23.9-5.1      c0,0,6.7,22.3,9,31.8c1.4,5.6-0.7,11.8-2.4,16.6C926.6,796.7,925.6,799.3,925.4,802.1z"></path>					<path class="st16" d="M948.6,812.7c12.8,0.6,9,3.3,26.6,6.5c17.6,3.2,24.6-1.6,25.9-4c1.1-2.1-7-5.4-15.8-9.1l-0.1,0.1      c0,0-12.4,4.2-26.7,0.3c-11.6-3.2-22.9-10.1-30.9-12.4c-1,2.6-1.9,5.2-2.2,8C924.7,810.1,935.7,812,948.6,812.7z"></path>				</g>				<path class="st18" d="M716.9,502.9c0,0,141.2,6.7,170.3,26.7c29.2,20,68.5,241.6,68.5,241.6s-3.1,2.3-9.7,2.7     c-6.2,0.4-19.6-3.7-19.6-3.7s-65.1-101-69-126c-3.9-25-1.8-47-12.9-48c-11-1-149.5,11-168.9-26.6     C656.4,532.2,716.9,502.9,716.9,502.9z"></path>				<path class="st13" d="M767.2,192.3c-6.3-4.1-14-5.1-19.5-5.1c1.5-1.4,4.3-1.7,4.3-1.7c-3.4-0.7-11.1,2.1-11.1,2.1     c-45.9-21.3-57.9,47.5-58,63.7c-0.1,16.2-1.2,34.7-25.7,47.6c-48.1,25.3-12.4,77.5-12.4,77.5c0.3,0.2,32.1,42.2,32.1,42.2     c-0.3-13.1,51.3-82.5,84-101c8.4-10.7,12.4-30.4,12.7-31.9c-2.4,15.6-5.6,24.3-8.4,29.1C793.4,292.2,783.9,203.2,767.2,192.3z"></path>				<path class="st15" d="M711,302.6c0,0,13.1-1.2,26.3,0c8.9,0.8,17.8,3.6,22.8,5.7c12.4,5.2,11.1,27.2-15,23.1     C719,327.3,709.2,309.1,711,302.6z"></path>				<path class="st15" d="M759,318.6c0.2,0.1,3.7,18.9-13.4,18.2c-11.2-0.5-35.4-14.1-33.3-23.7c1-4.6,9.5-16.4,11.2-43.5l2,0.5     l34.3,9.2c0,0-1.5,10.9-2.2,21.2C757.1,309.3,757.1,317.6,759,318.6z"></path>				<path class="st14" d="M760,279.4c0,0-1.5,10.9-2.2,21.2c-19.4-1.8-28.5-20.3-32.1-30.4L760,279.4z"></path>				<path class="st13" d="M722.3,266.2c0,0-9.1-16.8-10.7-30.8c-1.1-10,6.4-46.1,42.7-38.4c0,0,10.6,1.8,20.1,9.2     c7.6,5.9,18.3,18.3,3.3,49.3l-4.1,10.5L722.3,266.2z"></path>				<path class="st15" d="M765.8,289.6c0,0-46.1-2.3-44.2-31c1.9-28.7-2.8-48.3,26.7-48.1c29.5,0.3,34.5,11.6,36.2,21.3     S777.9,289.5,765.8,289.6z"></path>				<path class="st13" d="M769.3,211.2c0,0-14.9,32.8-34.6,36.5c-19.7,3.7-27.7-2.1-27.7-2.1s15.6-10.8,20.1-31.2     C727.1,214.5,760.9,194.6,769.3,211.2z"></path>				<path class="st13" d="M766,213.8c0,0,8.9,8.1,10.7,15.6c1.8,7.5,1.8,22.6,6.3,22.4c0,0,11-22.3,1.2-35.9     C773.8,201.3,766,213.8,766,213.8z"></path>				<path class="st5" d="M812,495.4c-3.7,4.5-15.4,5.8-27.8,7.9c-9.8,1.6-20.1,3.6-27.4,7.9c-16.6,9.8-71,42.8-86.9,41.3     c-6.2-0.6-5-12.4-1.3-28c5.9-24.7,18.2-59,18.2-73.9c0-8.1,2.7-27.4,6.3-49.4c0.3-1.8,0.6-3.6,0.9-5.4     c7.2-42.8,17.1-93.3,17.1-93.3s11,24.1,32.6,24.1c21.5,0,16.5-18.4,16.5-18.4s19.6,2.3,24.3,7.3c4.6,5,16.4,26.6,18.8,32.5     c0,0,0.5,7.5-18.1,11.1c0,0,4.5,20.4,5.1,33.9c0.4,10-6.8,41.4-8.9,60.9c-0.7,6.9-0.8,12.3,0.3,14.8c1.4,3.2,6.1,6.3,11.4,9.4     C803.3,484.3,816.4,490.1,812,495.4z"></path>				<path class="st19" d="M792.9,478.2c11.9,20.3-32.3,26.4-39.6,30.7c-16.6,9.8-67.5,45.2-83.4,43.7c-6.2-0.6-5-12.4-1.3-28     c5.9-24.7,18.2-59,18.2-73.9c0-8.1,2.7-27.4,6.3-49.4l19.2-18.4c0,0,20.5,53.1,40.1,61.8c10.3,4.6,21,7.6,28.9,9.4     c-0.7,6.9-0.8,12.3,0.3,14.8C782.9,471.9,787.6,475.1,792.9,478.2z"></path>				<g>					<rect x="816.9" y="493.2" class="st8" width="44.5" height="5.3"></rect>					<path class="st8" d="M851.9,497.8c0.4-1.7,40.9-65.2,40.9-65.2h90L937.6,496L851.9,497.8z"></path>					<path class="st10" d="M855.7,498.5c0.4-1.7,41-65.9,41-65.9h86l-42.9,65.9H855.7z"></path>					<path class="st4" d="M931.6,465.7c-0.9,2.6-3.7,4.7-6.3,4.7c-2.6,0-3.9-2.1-3.1-4.7c0.9-2.6,3.7-4.7,6.3-4.7      C931.1,461.1,932.5,463.1,931.6,465.7z"></path>				</g>				<path class="st15" d="M830.1,470.6c-2.5-1.1-22,2.5-27.6,3.5c-17.6-3.5-75.7-15-78.5-18.7c-3.3-4.3-10.6-134.9-18.9-137     c0,0-16.4-10-32.2,8.9c-15.8,18.9,11.3,153.8,34.7,160.8c26.1,7.7,101.4-1.2,101.4-1.2v0c6.2,2.1,17,3.3,22.8,5.2     c7.6,2.5,14.3,0.4,16-2.5C849.5,486.7,833.1,471.9,830.1,470.6z"></path>				<path class="st5" d="M711,302.6c0,0-33.7,3-43.4,14.1c-9.8,11.1-12.6,41.1-12.6,41.1s29.6,23.9,65.3,14.6L711,302.6z"></path>			</g>		</g>	</g></g></svg>